<?xml version="1.0" encoding="UTF-8" standalone="no"?>
<!-- Created with Inkscape (http://www.inkscape.org/) -->

<svg
   width="297mm"
   height="150mm"
   viewBox="0 0 297 150"
   version="1.1"
   id="svg1"
   inkscape:version="1.4.2 (f4327f4, 2025-05-13)"
   sodipodi:docname="TriviaTime.svg"
   xmlns:inkscape="http://www.inkscape.org/namespaces/inkscape"
   xmlns:sodipodi="http://sodipodi.sourceforge.net/DTD/sodipodi-0.dtd"
   xmlns="http://www.w3.org/2000/svg"
   xmlns:svg="http://www.w3.org/2000/svg">
  <sodipodi:namedview
     id="namedview1"
     pagecolor="#ffffff"
     bordercolor="#000000"
     borderopacity="0.25"
     inkscape:showpageshadow="2"
     inkscape:pageopacity="0.0"
     inkscape:pagecheckerboard="0"
     inkscape:deskcolor="#d1d1d1"
     inkscape:document-units="mm"
     inkscape:zoom="0.68862935"
     inkscape:cx="636.77216"
     inkscape:cy="432.0176"
     inkscape:window-width="1920"
     inkscape:window-height="991"
     inkscape:window-x="-9"
     inkscape:window-y="-9"
     inkscape:window-maximized="1"
     inkscape:current-layer="layer1" />
  <defs
     id="defs1">
    <inkscape:path-effect
       effect="bend_path"
       id="path-effect33"
       is_visible="true"
       lpeversion="1"
       bendpath="m 56.396486,36.177776 c 44.830154,-9.238477 89.660314,-11.709967 134.490474,0"
       prop_scale="1"
       scale_y_rel="false"
       vertical="false"
       hide_knot="false"
       bendpath-nodetypes="cc" />
    <inkscape:path-effect
       effect="bend_path"
       id="path-effect32"
       is_visible="true"
       lpeversion="1"
       bendpath="m 59.473457,36.178075 c 38.081504,-7.368031 77.173043,-13.271506 129.488713,0"
       prop_scale="1"
       scale_y_rel="false"
       vertical="false"
       hide_knot="false"
       bendpath-nodetypes="cc" />
    <inkscape:path-effect
       effect="bend_path"
       id="path-effect31"
       is_visible="true"
       lpeversion="1"
       bendpath="m 35.648446,91.678566 c 68.062184,-16.496717 134.370194,-10.773922 200.279434,0"
       prop_scale="1"
       scale_y_rel="false"
       vertical="false"
       hide_knot="false"
       bendpath-nodetypes="cc" />
    <inkscape:path-effect
       effect="bend_path"
       id="path-effect30"
       is_visible="true"
       lpeversion="1"
       bendpath="m 38.870666,91.82395 c 63.773944,-17.14771 129.355734,-10.79344 195.279004,0"
       prop_scale="1"
       scale_y_rel="false"
       vertical="false"
       hide_knot="false"
       bendpath-nodetypes="cc" />
  </defs>
  <g
     inkscape:label="Layer 1"
     inkscape:groupmode="layer"
     id="layer1">
    <path
       style="font-weight:bold;font-size:50.8px;font-family:'Segoe Print';-inkscape-font-specification:'Segoe Print';letter-spacing:-2.91042px;baseline-shift:baseline;display:inline;overflow:visible;opacity:1;vector-effect:none;fill:#1f3a93;stroke-width:1.41357;stroke-linecap:round;stroke-linejoin:round;stroke-miterlimit:4.4;enable-background:accumulate;stop-color:#000000;stop-opacity:1"
       d="m 148.27754,3.5500072 c -0.7908,0.0072 -1.5792,0.075 -2.34814,0.208761 -2.0169,0.35251 -3.89234,1.15866 -5.31938,2.510545 -1.86517,1.746066 -2.77887,4.2568818 -2.70007,6.6835388 0.0731,2.248131 1.28064,4.259628 2.87024,5.815057 0.01,0.009 0.0198,0.01793 0.0296,0.02681 1.42987,1.369591 3.34647,2.355284 5.3632,2.648078 0.44021,0.06393 0.88565,0.09508 1.33255,0.09017 2.54376,-0.02793 4.52366,-1.187293 6.45897,-2.689366 0.009,-0.0073 0.0177,-0.0146 0.0264,-0.02197 2.19984,-1.739343 3.76075,-4.331133 3.8003,-7.049577 0.0315,-2.1649148 -1.03309,-4.3621598 -2.72265,-5.8426818 -1.78269,-1.602556 -4.3184,-2.402047 -6.79112,-2.379387 z m 56.41006,3.414222 c -2.87037,-0.380293 -5.81131,0.03768 -8.04078,1.611694 -2.10831,1.4703588 -3.36527,3.8346378 -3.6163,6.2512828 -0.23245,2.237642 0.70109,4.397581 2.07324,6.157841 0.009,0.01032 0.0172,0.0205 0.026,0.03068 1.50792,1.892603 3.8083,3.322732 6.29112,3.644627 2.53268,0.328361 4.66194,-0.540092 6.79759,-1.752364 0.01,-0.006 0.0195,-0.01202 0.0293,-0.01799 2.43122,-1.409086 4.35204,-3.750777 4.77562,-6.434319 0.33742,-2.137663 -0.41279,-4.463852 -1.89047,-6.170666 -1.55332,-1.8407448 -3.97294,-2.9932168 -6.44538,-3.3207888 0,4e-6 2e-5,1e-5 3e-5,1.4e-5 z M 96.820954,13.350562 c -4.317844,0.507042 -10.22744,1.845052 -17.739625,4.125963 -10e-7,1e-6 0.05636,-0.01695 0.05636,-0.01695 -6.457583,1.85114 -13.049988,3.401285 -19.829591,4.663048 -2.176408,0.405054 -3.9743,0.831175 -5.469661,1.313132 -1.495172,0.481896 -2.690391,0.87745 -3.95335,2.032884 -0.0092,0.0083 -0.01821,0.01678 -0.02724,0.02521 -1.644872,1.536891 -2.449122,4.120935 -2.011999,6.239816 0.43606,2.113719 2.009983,4.279973 4.160474,5.146191 0.0197,0.0075 0.03945,0.01473 0.05929,0.02184 2.37975,0.91158 4.53785,0.605182 7.262841,0.08644 1.416396,-0.269635 3.55871,-0.865316 8.270965,-2.060519 1.828534,-0.464516 2.292168,-0.560399 3.378198,-0.817352 0.06276,2.00265 0.15852,4.469867 0.334305,7.920464 0.40762,8.001482 0.982263,14.053234 1.713214,18.245872 0.518151,2.972044 1.056436,5.407044 1.660904,7.392656 0.732827,2.407288 2.306847,4.659117 4.583943,5.690952 1.557587,0.71204 3.02171,1.24583 4.85283,0.95529 2.040108,-0.32371 3.96219,-1.881754 4.886302,-3.750982 0.864106,-1.713191 1.200165,-3.745083 0.921898,-5.672742 -0.106866,-0.7403 -0.317111,-1.502529 -0.695981,-2.234688 -2.1e-5,-4.3e-5 0.213027,0.499309 0.213009,0.499264 -0.662309,-1.951154 -1.094046,-3.681278 -1.310448,-5.164614 -0.588347,-4.032852 -1.047531,-9.70587 -1.294168,-16.831588 -0.210329,-6.712998 -0.235069,-10.404492 -0.234349,-11.074062 1.854134,-0.650667 4.912233,-1.448451 9.575511,-2.019043 1.941568,-0.237568 3.626887,-0.37371 5.023914,-0.423109 -0.021,5.13e-4 -0.042,9.79e-4 -0.063,0.0016 0.65676,-0.0123 1.00361,-0.0525 1.52516,-0.07214 -1.2955,1.195664 -2.3415,2.678815 -2.712777,4.46204 -0.004,0.01982 -0.007,0.03968 -0.01,0.05955 -0.28134,1.480635 -0.28226,3.082471 -0.22361,5.471412 6e-4,0.01385 9.8e-4,0.02765 9.8e-4,0.04146 0.019,0.517321 0.0308,1.300793 0.0345,2.31447 1.1e-4,9.35e-4 2.2e-4,0.0019 3.3e-4,0.0028 0.0198,4.035097 0.1532,7.47378 0.398617,10.329108 0,0 6.7e-4,0.0055 6.7e-4,0.0055 0.25556,2.908557 0.48957,5.231646 0.70093,6.987288 0.52051,4.323884 1.15786,7.488977 2.39163,10.015735 9.8e-4,0.0045 0.003,0.0089 0.004,0.01343 1.25718,2.548927 4.16871,4.584634 6.91277,4.297372 1.98888,-0.208208 3.9696,-1.034558 5.37053,-2.616411 1.60651,-1.786875 2.08586,-4.07427 2.18282,-6.508139 9.7e-4,-0.0083 0.003,-0.01681 0.003,-0.02522 0.20656,-6.255313 1.8887,-11.905738 5.26025,-17.128085 1.77937,-2.756135 3.34034,-4.775944 4.48621,-5.966839 0.41903,-0.435478 0.69435,-0.590015 0.96212,-0.76603 1.42052,1.145387 3.14153,1.821576 4.94682,2.030052 -0.12665,1.04085 -0.2674,2.135027 -0.42626,3.304471 -0.86823,5.893603 -1.18271,10.965864 -0.9644,15.257301 0.13852,2.72465 0.61959,5.102371 2.00284,7.114149 1.37997,2.007005 3.87647,3.174474 6.1341,3.105586 1.93681,-0.0591 3.80647,-1.013256 5.1918,-2.40228 0.49732,-0.485735 1.02234,-0.929067 1.46017,-1.487852 0,0 0,0 0,0 0.59523,-0.761678 1.03238,-1.742072 1.01496,-3.340579 -0.006,-0.57506 -0.0719,-1.084567 -0.16439,-1.630131 -0.007,-0.04425 -0.016,-0.08835 -0.0251,-0.132267 -0.46522,-2.246549 -0.68048,-3.971497 -0.69385,-4.995165 -0.0206,-1.576654 0.064,-3.807676 0.27586,-6.594122 0.075,-0.985261 0.57797,-2.815393 0.80752,-4.11166 0.96984,3.157016 1.87673,6.110538 3.31357,10.091272 -0.003,-0.0065 -0.006,-0.01287 -0.009,-0.01932 1.76699,4.982294 2.41331,8.636725 2.41221,8.693236 0.14702,-0.152859 0.29421,-0.30563 0.44159,-0.458315 -0.25695,0.902367 -0.16227,1.876254 0.25568,2.705439 1.75755,2.425468 3.91476,4.368849 6.72992,4.444115 2.06903,0.05531 3.68719,-1.109013 4.9709,-2.446956 1.28159,-1.335737 2.41042,-3.027338 3.61495,-5.157939 0,0 0.009,-0.01342 0.009,-0.01342 3.88179,-6.796482 7.65548,-12.326005 11.1342,-16.572611 0.003,-0.0025 0.006,-0.0051 0.009,-0.0076 4.2e-4,-4.97e-4 -1.9e-4,-0.0023 2.2e-4,-0.0028 1.45804,-1.766643 2.72855,-3.07557 3.89914,-4.23504 -0.25864,0.992042 -0.53328,2.024696 -0.83786,3.133513 -1.64267,5.728035 -2.62109,10.720181 -2.97312,15.004028 -0.22359,2.720908 -0.0649,5.141609 1.02247,7.318455 1.08445,2.171195 3.36898,3.657463 5.58483,3.888746 1.9012,0.198442 3.86036,-0.497264 5.40768,-1.686849 1.3059,-0.977021 2.74067,-1.701975 3.09465,-4.446905 0.0276,-0.213206 0.0127,-0.409403 0.0241,-0.611984 0.32274,0.968811 0.57668,1.968221 1.12438,2.816533 1.60734,2.489526 4.08938,4.231546 6.83387,4.661368 4.78616,0.749579 9.68178,-1.062951 14.96341,-4.657474 0.0178,1.000365 -0.0743,2.049918 0.10531,2.973482 0.63862,3.285746 3.06152,6.146136 6.03851,6.835426 1.78773,0.41394 3.70242,0.20037 5.46796,-0.5106 1.96656,-0.77863 3.91958,-2.6537 4.52093,-4.960102 0.5518,-2.116274 -0.51344,-4.530276 -1.86947,-5.693408 -0.0178,-0.0151 -0.0356,-0.03001 -0.0537,-0.04471 -0.11182,-0.09178 -0.0892,-0.111233 -0.14455,-0.189709 -0.0382,-0.323159 -0.0738,-0.567116 -0.13867,-1.385473 -0.0242,-0.418249 0.17854,-2.405704 0.85207,-5.149182 0.58991,-2.402846 1.87311,-5.903648 3.88334,-10.205662 0.003,-0.0061 0.006,-0.01202 0.007,-0.01805 1.15605,-2.437344 1.89385,-4.068365 2.28507,-5.616698 0.44064,-1.74391 0.14613,-3.999783 -1.1576,-5.561197 -0.72694,-0.870617 -1.61306,-1.445193 -2.55831,-1.88541 -0.35879,-1.162459 -0.86278,-2.27625 -1.68756,-3.226922 -1.38516,-1.59659 -3.37976,-2.611992 -5.46662,-3.050119 -7.31002,-1.534692 -14.92045,1.603593 -21.94999,8.097554 -4.13874,3.81141 -7.09633,7.841571 -9.09625,11.95678 0.62139,-2.214457 1.34034,-4.630772 2.76877,-7.899703 0.006,-0.0123 0.0113,-0.0245 0.0164,-0.03679 0.10389,-0.246027 0.20785,-0.492012 0.31201,-0.737955 -0.0113,0.02364 -0.0213,0.04727 -0.032,0.0709 1.29638,-2.877219 2.09389,-4.516612 2.37277,-6.526482 0.28273,-2.037451 -0.61771,-4.135052 -1.95269,-5.539523 -1.5537,-1.634556 -3.7402,-2.444651 -5.97013,-2.699253 -1.14178,-0.130359 -2.32756,0.0942 -3.43419,0.492985 -0.0317,-0.03939 -0.0404,-0.0939 -0.0731,-0.132578 -1.3227,-1.594341 -3.43248,-2.607031 -5.50164,-2.791926 -1.86395,-0.166561 -3.7612,0.174998 -5.4374,0.943638 -2.30407,1.056576 -3.94763,2.770472 -6.41182,5.472994 -0.004,0.0044 -0.009,0.0088 -0.0127,0.01315 -2.47609,2.745124 -5.25957,6.383939 -8.2987,10.936818 -1.35028,2.013078 -1.9483,3.038009 -2.67916,4.189302 -0.38607,-1.325895 -0.77216,-2.653128 -1.18536,-4.492134 -0.51648,-2.429029 -0.81799,-4.131028 -0.87863,-4.717407 -0.0487,-0.708317 -0.0637,-2.237852 -0.01,-4.398257 0.0567,-2.245631 -0.34695,-4.467256 -1.8519,-6.262689 -1.50776,-1.798775 -3.96879,-2.642549 -6.24645,-2.651932 -2.22052,-0.0092 -4.54297,0.897938 -6.06636,2.555743 -0.40736,-0.258153 -0.8325,-0.482642 -1.27151,-0.673593 -1.33588,-0.581326 -2.79841,-0.851185 -4.2749,-0.815233 -1.77078,0.04311 -3.40584,0.947073 -4.74637,2.118926 -0.055,-0.04447 -0.0813,-0.114711 -0.13711,-0.158072 -2.3419,-1.833188 -5.41673,-2.616319 -8.56601,-2.444146 -4.63222,0.25325 -8.699,3.054374 -12.10555,7.308756 -0.0888,0.110951 -0.16244,0.259864 -0.25044,0.372299 -0.25793,-1.576837 -1.05443,-3.078976 -2.20488,-4.115089 -1.28545,-1.157684 -3.01291,-1.566914 -4.69126,-1.626189 0.10969,-0.120224 0.27501,-0.168178 0.37442,-0.299113 1.18523,-1.561122 1.40292,-3.38142 1.25163,-5.031459 -0.18886,-2.060049 -1.39793,-3.807216 -2.91101,-5.08024 -1.57981,-1.346782 -3.2461,-1.580803 -5.00593,-1.717166 -1.76503,-0.136762 -3.761236,-0.04162 -6.128281,0.236335 z m 51.515016,-2.732473 c 0.9282,-0.0083 1.1291,0.126444 1.41972,0.387316 0.0226,0.02038 0.0455,0.04051 0.0686,0.06037 0.41637,0.355844 0.37242,0.323403 0.37375,0.669149 0.003,0.595655 -0.0928,0.912257 -1.04769,1.679263 -1.21811,0.945364 -1.96114,1.053749 -1.71899,1.051042 -0.4456,0.005 -0.63183,-0.02231 -1.25094,-0.619165 -0.04,-0.04024 -0.0779,-0.07916 -0.11352,-0.11679 -0.58055,-0.612087 -0.61129,-0.884211 -0.61249,-0.962714 -0.0141,-0.930169 0.13472,-1.152504 0.53668,-1.521519 0.01,-0.0093 0.0195,-0.01865 0.0293,-0.02804 0.004,-0.0037 0.009,-0.0073 0.0112,-0.01103 0.30581,-0.281743 0.8238,-0.574571 2.30387,-0.587871 0,0 7e-5,-5e-6 7e-5,-5e-6 z m 55.42734,3.352159 c 0.92633,0.122627 1.11089,0.285013 1.36413,0.584257 0.0187,0.02323 0.0378,0.04625 0.057,0.06907 0.36536,0.411085 0.32605,0.372833 0.27916,0.715237 -0.0808,0.590134 -0.21695,0.890108 -1.27479,1.514883 -1.34499,0.764182 -2.10272,0.766903 -1.86117,0.798248 -0.44452,-0.05769 -0.62605,-0.11081 -1.16015,-0.788708 -0.59205,-0.785128 -0.58525,-1.088419 -0.57499,-1.171108 0.1145,-0.923098 0.29391,-1.122382 0.74634,-1.431117 0.0113,-0.0077 0.022,-0.01572 0.0331,-0.02366 0.34277,-0.239495 0.89512,-0.465168 2.39142,-0.267091 z M 97.649362,20.369553 c 2.043711,-0.240301 3.634058,-0.283058 4.612408,-0.20768 0.97799,0.07534 1.22747,0.407303 0.70056,-0.03948 0.01,0.009 0.0213,0.01813 0.0321,0.02711 0.39919,0.330564 0.32063,0.296585 0.33532,0.330632 -0.55194,0.03657 -1.12741,0.07547 -2.26559,0.09652 -0.0213,3.39e-4 -0.0426,8.55e-4 -0.0639,0.0016 -1.675356,0.05884 -3.562788,0.215092 -5.676002,0.473335 -1.04228,0.127377 -1.732965,0.292462 -2.670147,0.430606 1.438603,-0.283159 3.918752,-0.985995 4.995283,-1.112573 0,-5e-6 0,-9e-6 0,-1.2e-5 z m -13.597615,3.149026 c -0.81545,0.300929 -1.814718,0.528584 -2.505272,0.896723 -0.401507,0.214602 -0.758218,0.499135 -1.05184,0.838855 -0.846933,0.977275 -0.903214,1.614132 -1.016145,2.168582 -0.113255,0.556033 -0.154214,1.061749 -0.176536,1.617033 -0.06334,1.575814 0.08586,5.23763 0.40276,12.420009 -3.77e-4,0.0038 -7.5e-4,0.0075 -0.0011,0.01131 0.344766,7.275068 0.882325,13.121119 1.589402,17.566138 0.323104,2.031183 0.90035,4.167428 1.704087,6.441142 0.06062,0.170982 0.133837,0.337031 0.218968,0.496684 -0.06189,-0.116351 -0.05391,-0.153313 -0.03933,-0.0609 0.08788,0.557684 0.04009,0.85974 -0.201466,1.34054 -0.0085,0.01525 -0.01685,0.03056 -0.02511,0.04594 -0.153177,0.316686 0.173439,0.01444 0.06701,0.03132 0.387533,-0.06146 -0.121213,0.01004 -1.072401,-0.427468 -0.0048,-0.0022 -0.0098,-0.0041 -0.01453,-0.0061 -0.169753,-0.07706 -0.368075,-0.127151 -0.691235,-1.237163 -0.446647,-1.534192 -0.922551,-3.744069 -1.37385,-6.534644 -0.590888,-3.653705 -1.102947,-9.573123 -1.407949,-17.436157 -0.15345,-3.955955 -0.239656,-6.969274 -0.267246,-8.950403 -0.01385,-0.994799 -0.01315,-1.744468 -0.0014,-2.191544 0.006,-0.223647 0.01774,-0.381035 0.01793,-0.38298 9.4e-5,-9.74e-4 0.0017,0.02906 -0.03094,0.189335 -0.03347,0.163965 0.277816,0.310556 -0.760217,1.52029 0.972692,-1.135002 1.135682,-2.733054 0.393127,-4.011678 -0.742692,-1.278857 -2.236938,-1.96825 -3.749421,-1.724437 -1.241322,0.201601 -3.674667,0.782778 -8.232438,1.941138 -4.627087,1.174099 -7.620051,1.924512 -7.81919,1.962449 -1.439337,0.274208 -1.663998,0.189411 -2.140387,0.178096 0.142489,-0.05715 0.02837,-0.01711 0.201406,-0.0728 1.02335,-0.329433 2.564748,-0.708104 4.53085,-1.073822 7.021617,-1.306094 13.865074,-2.915205 20.576895,-4.838232 0.01956,-0.0055 0.03908,-0.01131 0.05856,-0.01717 1.253436,-0.38034 1.665629,-0.375699 2.816859,-0.700201 4.8e-5,3.5e-5 9.6e-5,6.9e-5 1.44e-4,1.02e-4 z M 227.6528,36.345549 c 0.84082,0.176569 1.11975,0.396333 1.32854,0.634549 0.20925,0.238739 0.45087,0.658392 0.54197,1.627411 0.14569,1.545569 1.29664,2.830407 2.83474,3.180924 0.43081,0.09817 0.28693,0.05429 0.41801,0.118202 -0.17075,0.566208 -0.61167,1.832255 -1.54931,3.918355 -0.003,0.0058 -0.007,0.01173 -0.01,0.01757 -2.03528,4.597765 -3.38685,8.418292 -4.09253,11.588872 -0.68472,3.076321 -1.06537,5.268889 -0.89715,7.390432 9.8e-4,0.02021 0.003,0.04041 0.006,0.06059 0.12737,1.329169 0.19371,2.100035 0.38183,2.965303 0.21938,1.009094 0.56968,1.611497 0.96221,2.101215 -0.25963,0.01981 -0.57108,0.152965 -0.82275,0.09474 -0.925,-0.214005 -0.89384,-0.10917 -1.1419,-1.509884 -0.24577,-1.387759 -0.0547,-4.300201 1.03231,-8.260143 0.22067,-2.420953 -1.95808,-4.315171 -4.25968,-3.654447 4.0879,-3.734711 7.21019,-7.461644 8.1566,-11.676376 0.3695,-1.645462 0.34292,-3.468247 -0.46496,-5.12145 -0.67588,-1.439658 -2.15305,-2.979068 -4.07218,-3.37279 -1.08488,-0.222569 -2.10774,-0.112463 -3.11326,0.0821 1.69508,-0.360646 3.31482,-0.489111 4.76218,-0.185171 z m -41.7153,-5.619442 c 0.45663,0.04075 0.3287,0.01933 0.44537,0.159226 0.0114,0.01399 0.0222,0.02797 0.0334,0.04183 0.18192,0.211771 0.15382,0.09778 0.12411,0.42438 0.0317,-0.348861 0.11648,0.06842 -1.49749,0.928323 -0.0114,0.0063 -0.0239,0.01258 -0.0358,0.01907 -2.95256,1.615769 -5.86336,4.588826 -9.55655,9.161029 -0.003,0.0025 -0.006,0.0052 -0.009,0.0077 -3.69919,4.611296 -7.55608,10.431711 -11.46171,17.473447 -0.003,0.0045 -0.006,0.009 -0.009,0.01357 -0.9976,1.818671 -1.88835,3.077678 -2.47459,3.696308 -0.18427,0.194463 -0.22748,0.210406 -0.31133,0.27348 -0.01,-0.01504 -0.51508,-0.508241 -1.0635,-1.087161 -0.23147,-2.499001 -0.96886,-5.238458 -2.39744,-9.47176 -9.8e-4,-0.0065 -0.003,-0.013 -0.006,-0.01941 -3.45593,-10.052314 -5.22228,-17.023926 -5.21623,-20.343879 0.003,-1.453738 0.34206,-2.0697 0.38955,-2.128156 0.0475,-0.05846 -0.14977,-0.08951 0.62996,-0.08619 0.79264,0.0034 0.63389,0.07031 0.62372,0.05837 -0.01,-0.01187 0.28372,0.413775 0.27529,1.672413 -0.0153,2.293567 0.01,3.923558 0.12171,5.148296 0.003,0.03229 0.007,0.06454 0.0114,0.09673 0.15548,1.30745 0.52202,2.997157 1.11407,5.56045 0.004,0.013 0.007,0.02587 0.0113,0.03878 0.61741,2.545677 1.21747,4.697593 1.83696,6.522033 0.003,0.0096 0.01,0.02912 0.0127,0.03885 9.8e-4,0.0037 9.8e-4,0.01004 0.003,0.01385 0.30161,0.933859 0.67408,2.192041 1.10486,3.761351 -0.007,-0.02683 -0.0127,-0.05364 -0.02,-0.08048 0.27991,1.117907 0.47816,1.902581 0.92406,2.827537 1.15199,2.387074 4.3061,2.642148 5.80776,0.476031 0.32862,-0.474365 0.39376,-0.628724 0.66289,-1.102425 0.27148,-0.477839 0.61071,-1.087381 1.05953,-1.892199 0.01,-0.01794 0.0194,-0.03596 0.029,-0.05407 0.24135,-0.450381 2.11049,-3.486357 5.10176,-7.836418 9.7e-4,-0.0017 0.004,-0.0035 0.006,-0.0052 2.98952,-4.368436 5.67552,-7.77943 7.89309,-10.192254 9.8e-4,-0.0026 0.004,-0.0052 0.007,-0.0079 9.8e-4,-0.0014 0.004,-0.0037 0.006,-0.0051 2.2706,-2.438798 4.22017,-3.821442 4.18482,-3.805353 0.60217,-0.274054 1.07016,-0.346002 1.64046,-0.295105 -2.8e-4,-5.9e-5 -5.6e-4,-1.19e-4 -8.4e-4,-1.78e-4 z m -57.06049,-0.369356 c 1.77733,-0.09711 2.7822,0.248913 3.62604,0.905271 0.007,0.0063 0.0141,0.0123 0.0207,0.01838 0.9679,0.74113 1.12647,1.130653 1.16174,1.933776 0.006,0.124747 -0.0362,0.125723 -0.0409,0.222799 -0.24216,-0.08615 -0.42758,-0.01672 -0.82121,-0.369124 -0.0383,-0.03402 -0.0773,-0.06723 -0.1172,-0.09959 -1.1555,-0.946663 -2.18909,-1.988851 -4.58004,-1.853962 -1.25371,0.07073 -2.1818,0.479228 -3.03071,0.994241 1.40758,-1.046492 2.71121,-1.693311 3.78157,-1.751795 0,2e-6 0,3e-6 0,4e-6 z m -19.88328,1.722785 c 0.2092,0.186122 0.0773,0.03576 0.0748,0.0093 -0.003,-0.02906 -0.18021,2.476617 -0.87104,5.92249 0.003,-0.01046 0.006,-0.02088 0.009,-0.03132 -0.3037,1.447564 -0.4875,3.055638 -0.58076,4.850974 -5.6e-4,0.0038 -9.8e-4,0.0075 -9.8e-4,0.01131 -3.3e-4,0.0061 -7.7e-4,0.01061 -9.8e-4,0.01676 -0.10602,1.810987 -0.20891,3.621939 -0.3085,5.432849 0.48766,2.625193 3.5418,3.77835 5.59622,2.151359 -1.20572,3.759888 -1.8812,7.674034 -1.95638,11.740127 9e-5,-0.0083 1.6e-4,-0.01666 2.3e-4,-0.02499 -0.0385,1.514261 -0.40651,2.036121 -0.31573,1.935178 -0.0127,0.0123 -0.0242,0.02455 -0.036,0.03697 -0.12284,0.140749 -0.3031,0.324281 -1.16223,0.41407 -0.25866,0.02705 0.20984,0.401162 -0.15635,-0.405512 -0.46843,-0.990605 -1.16523,-3.729197 -1.58225,-7.668997 -0.17235,-1.628331 -0.36829,-3.898481 -0.57868,-6.761849 l -5.8e-4,-0.0055 c -0.18516,-2.589932 -0.2703,-5.867992 -0.23431,-9.770349 l -5.7e-4,-0.0055 c 0.0114,-1.037608 0.01,-1.852838 -0.004,-2.502759 7.3e-4,-0.01116 9.8e-4,-0.02235 0.003,-0.03353 -4e-5,-0.0022 -8e-4,-0.0063 -8.6e-4,-0.0083 -0.0191,-2.149693 0.10786,-3.666887 0.15935,-3.940051 0.003,-0.0086 0.0589,-0.252897 0.60146,-0.74905 0.40737,-0.372567 0.64009,-0.466451 1.10101,-0.511762 0.59642,-0.05863 0.36451,0.0014 0.24829,-0.102004 -3e-5,1.7e-5 -4e-5,3.5e-5 -6e-5,5.1e-5 z m 112.75982,4.733408 c -0.91922,0.295731 -1.82623,0.640443 -2.70714,1.133969 -2.1763,1.219273 -4.4084,3.014128 -6.8386,5.400123 0,0 -0.003,0.0023 -0.003,0.0023 -4.86831,4.787683 -7.80851,9.386812 -8.52533,14.194702 -0.17765,1.191509 -0.2839,2.239412 0.0166,3.549696 0.29966,1.306321 1.75303,3.19745 3.43173,3.470869 0.5329,0.08679 1.04671,-0.03001 1.56966,-0.03697 -1.28858,0.308825 -2.48735,0.434904 -3.54319,0.269423 -1.09148,-0.171067 -1.67698,-0.542957 -2.42778,-1.727166 -0.69965,-1.103534 -0.96458,-2.246669 -0.6961,-4.102129 0.73172,-5.056943 3.75559,-10.615623 9.98555,-16.237712 0.003,-0.0016 0.004,-0.0029 0.007,-0.0045 3.577,-3.238389 6.81342,-5.040058 9.7313,-5.91254 -2e-5,-2.8e-5 -3e-5,-5.6e-5 -5e-5,-8.4e-5 z m -79.64342,-5.962636 c 1.0594,-0.02554 1.38343,0.182572 1.48101,0.259588 0.34658,0.273511 0.0763,0.0032 0.0725,-0.18096 -0.003,-0.154557 -0.28769,1.963664 -1.06814,4.805498 -0.007,0.02493 -0.0142,0.04994 -0.0206,0.07502 -0.0614,0.24532 -0.12271,0.490652 -0.18381,0.735996 -1.22388,4.662662 -1.92447,8.543348 -2.11339,11.752249 -0.1719,2.919414 -0.23141,5.309497 -0.17291,7.231598 0.0513,1.687133 0.40054,3.654968 0.88783,5.902945 -0.0584,0.126683 -0.0353,0.181172 -0.23286,0.376569 -0.01,0.0095 -0.0187,0.01888 -0.028,0.02842 -0.4612,0.467148 -0.5889,0.467295 -0.82616,0.474589 -0.6164,0.01894 -0.32515,0.10965 -0.4997,-0.150002 -0.1731,-0.257537 -0.5908,-1.347114 -0.65716,-3.292296 -0.12383,-3.626943 0.21771,-8.304694 1.12829,-13.873624 0.003,-0.013 0.004,-0.0259 0.007,-0.03888 0.19225,-1.262658 0.36208,-2.451389 0.51763,-3.582822 0.003,-0.002 0.006,-0.0038 0.009,-0.0058 0.31565,-2.159813 0.55256,-3.835832 0.71598,-5.108798 0.16233,-1.264589 0.28024,-1.794068 0.2537,-2.823139 -0.0311,-1.206496 0.19695,-1.919409 0.50822,-2.428915 0.14298,-0.26501 -0.0976,-0.149576 0.22233,-0.157286 -1.3e-4,0 -2.6e-4,2e-6 -3.8e-4,2e-6 z m 52.66364,2.288636 c 1.05537,0.120351 1.34836,0.371412 1.43461,0.461164 0.30639,0.318741 0.0754,0.01385 0.097,-0.169231 0.0182,-0.153538 -0.55617,1.9051 -1.71914,4.613397 -0.01,0.02372 -0.0207,0.04755 -0.0307,0.0715 -0.0944,0.234614 -0.18879,0.469265 -0.28299,0.703951 -1.85095,4.450889 -3.07096,8.203658 -3.69341,11.357222 -0.56637,2.86952 -0.94928,5.231008 -1.1525,7.143375 -0.17848,1.679578 -0.10249,3.677459 0.0703,5.97168 -0.0748,0.117623 -0.0607,0.17318 -0.27934,0.339282 -0.01,0.008 -0.0209,0.01621 -0.0314,0.02441 -0.51594,0.401302 -0.64097,0.384436 -0.8748,0.35999 -0.60718,-0.06346 -0.33372,0.06535 -0.46983,-0.215313 -0.13486,-0.278016 -0.39764,-1.414284 -0.2002,-3.350933 0.36803,-3.609921 1.33515,-8.204486 2.99087,-13.598724 0.004,-0.01244 0.009,-0.02501 0.0127,-0.03754 0.36156,-1.225585 0.69102,-2.379996 0.99899,-3.480335 0.003,-0.0016 0.006,-0.0031 0.009,-0.0045 0.60665,-2.098528 1.07216,-3.72428 1.40824,-4.964419 0.33357,-1.230985 0.52006,-1.739415 0.63438,-2.762817 0.13401,-1.199742 0.46056,-1.874355 0.83941,-2.336444 0.16892,-0.234371 -0.0764,-0.161614 0.23947,-0.125581 -1.3e-4,-1.6e-5 -2.6e-4,-3.2e-5 -3.8e-4,-5e-5 z m 28.60726,10.675838 c -0.59979,2.327679 -2.68948,5.395895 -6.97172,9.066785 -2.07245,1.778392 -3.73873,2.820544 -5.10475,3.5506 0.92733,-2.206911 2.55565,-4.882321 5.81165,-8.01435 -9.1e-4,-1.69e-4 -9.8e-4,-3.41e-4 -0.003,-5.1e-4 2.19765,-2.110542 4.10333,-3.545878 5.48497,-4.309231 0.54307,-0.300048 0.456,-0.191034 0.78254,-0.293309 3e-5,4e-6 5e-5,9e-6 6e-5,1.5e-5 z m -83.06806,-2.366241 c -0.57505,0.829294 -1.14654,1.659754 -1.7145,2.491358 -0.25799,-0.148876 -0.51627,-0.297506 -0.77485,-0.44589 1.10553,-0.241627 2.03269,-1.001865 2.48935,-2.045468 z m 51.13487,2.004773 c -0.89729,0.787302 -1.78895,1.578025 -2.67502,2.372089 -0.14998,-0.145541 -0.30014,-0.290989 -0.45049,-0.436341 1.31332,-0.0089 2.5209,-0.754103 3.12551,-1.935748 z m 37.5536,27.832103 c 0.0182,0.0147 0.0341,0.03173 0.0522,0.04662 -0.0177,-0.01465 -0.0352,-0.02928 -0.0528,-0.04392 2.9e-4,2.29e-4 4.1e-4,-0.0029 6.7e-4,-0.0026 z"
       id="path30" />
    <path
       style="font-weight:bold;font-size:50.8px;font-family:'Segoe Print';-inkscape-font-specification:'Segoe Print';letter-spacing:-2.91042px;fill:#9dc5f6;stroke-width:3.48444;stroke-linecap:round;stroke-linejoin:round;stroke-miterlimit:4.4"
       d="m 83.986255,28.124894 c -0.185333,0.218649 -0.293555,0.768477 -0.324055,1.649455 -0.0296,0.855068 0.111516,4.956888 0.459879,12.147527 0.372323,7.200624 0.925841,12.952862 1.616287,17.188293 0.286105,1.755067 0.810625,3.682194 1.56843,5.786952 0.165127,0.304881 0.281168,0.665122 0.348412,1.080705 0.201704,1.246581 0.02297,2.424952 -0.531583,3.534898 -0.532324,1.106606 -1.344451,1.750575 -2.441534,1.934966 -0.73919,0.124239 -1.743471,-0.09721 -3.019934,-0.661124 C 80.41217,70.24187 79.515423,69.092599 78.976137,67.334593 78.437106,65.57742 77.91427,63.256889 77.411201,60.377469 76.72545,56.452431 76.150037,50.478274 75.736309,42.541712 75.321785,34.58991 75.216565,30.514898 75.378534,30.321175 c -0.628766,0.107234 -3.323583,0.742265 -7.848132,1.91325 -4.636018,1.197969 -7.171215,1.858222 -7.979293,2.010998 -2.415465,0.456666 -4.143303,0.481684 -5.194896,0.06565 -1.054959,-0.438577 -1.709755,-1.311159 -1.96297,-2.619221 -0.226539,-1.170248 0.09201,-2.161603 0.959298,-2.972723 0.887607,-0.812765 3.372815,-1.62148 7.459234,-2.384591 6.80939,-1.27161 13.458257,-2.89264 19.978814,-4.840764 7.321607,-2.313204 13.026772,-3.669627 16.956182,-4.185163 4.400049,-0.577288 7.157219,-0.384449 8.229629,0.503151 1.06983,0.86449 1.65614,1.786799 1.76646,2.761569 0.25498,2.253344 -0.66388,3.492186 -2.73994,3.739527 -0.67967,0.08097 -1.77044,0.141514 -3.28746,0.190694 -1.53508,0.07528 -3.316916,0.247178 -5.338451,0.522048 -6.074952,0.826017 -10.225481,1.911595 -12.390754,3.099304 z m 27.770555,20.632003 c 0.15364,-0.393267 0.30776,-0.786449 0.46238,-1.179543 2.16288,-5.951581 4.75634,-10.83524 7.75609,-14.641953 3.01985,-3.829963 6.20528,-5.850844 9.42726,-6.054176 2.47132,-0.155957 4.52399,0.393643 6.12979,1.628347 1.63139,1.234681 2.46875,2.758974 2.53939,4.556856 0.0439,1.120874 -0.1801,2.100554 -0.66616,2.939217 -0.48724,0.81569 -1.18775,1.243344 -2.10603,1.287327 -1.45995,0.06993 -2.8196,-0.452236 -4.09631,-1.570006 -0.89694,-0.71896 -1.59882,-1.060549 -2.0964,-1.028235 -1.77842,0.115489 -4.59852,3.034676 -8.19997,8.815285 -3.60286,5.782867 -5.34985,12.134084 -5.43136,18.975765 -0.037,1.976802 -0.43232,3.394684 -1.18292,4.25299 -0.74887,0.88247 -1.83317,1.404782 -3.26147,1.575215 -1.51547,0.180834 -2.70504,-0.587205 -3.57452,-2.314795 -0.87068,-1.747408 -1.57756,-4.69006 -2.10308,-8.813465 -0.21535,-1.689661 -0.46194,-3.984061 -0.73558,-6.867769 -0.25284,-2.719762 -0.41045,-6.077187 -0.45774,-10.047199 -0.0114,-1.035602 -0.0289,-1.844396 -0.0543,-2.430678 -0.0725,-2.29905 -0.0286,-3.88166 0.12948,-4.748964 0.17881,-0.892915 0.72258,-1.772606 1.63659,-2.634413 0.91403,-0.861828 1.98542,-1.362741 3.20796,-1.499606 1.29459,-0.144928 2.31807,0.110174 3.06455,0.759474 0.74672,0.649528 1.16219,1.40541 1.25112,2.265042 0.1138,1.09932 -0.19163,3.40533 -0.8799,6.963049 -0.24832,1.225078 -0.40985,2.675513 -0.48507,4.352563 -0.0948,1.819934 -0.18602,3.639825 -0.27378,5.459672 z m 43.16783,-36.995205 c -0.0169,1.659787 -0.84224,3.10884 -2.44885,4.364199 -1.60739,1.232662 -2.98345,1.857247 -4.15559,1.866574 -1.49513,0.01187 -2.83471,-0.552325 -4.03542,-1.698125 -1.17562,-1.146212 -1.78651,-2.299139 -1.81533,-3.467427 -0.0414,-1.682333 0.50889,-3.0529788 1.66601,-4.1035598 1.15609,-1.073428 2.84748,-1.627349 5.05777,-1.638741 1.7219,-0.0089 3.11007,0.463212 4.15326,1.404095 1.06951,0.91821 1.59104,2.0114918 1.57815,3.2729848 z m -17.18982,29.072186 9.8e-4,0.03503 c 0.57308,-4.297975 0.86672,-6.706038 0.84307,-7.331038 -0.0597,-1.578054 0.20734,-2.9341 0.81182,-4.068514 0,0 0,0 0,0 0.0576,-0.108167 0.11845,-0.214289 0.18225,-0.318366 0.75647,-1.195108 1.84437,-1.814655 3.25289,-1.848995 1.65081,-0.04024 2.94541,0.313946 3.87429,1.049379 0.92943,0.735869 1.39365,1.574088 1.40231,2.508522 0.009,0.941849 -0.41972,2.859242 -1.25631,5.798519 -0.0674,0.257987 -0.13472,0.515997 -0.20175,0.77403 -1.23003,4.518504 -1.91024,8.235513 -2.1003,11.081401 -0.19051,2.852443 -0.26166,5.164194 -0.22306,6.913017 0.0315,1.428283 0.30774,3.321396 0.81461,5.698222 0.074,0.419194 0.11336,0.769194 0.11887,1.049528 0.01,0.538472 -0.45511,1.269938 -1.38485,2.205537 -0.9077,0.934614 -1.89318,1.419641 -2.96848,1.457643 -0.08,0.0028 -0.15891,0.0038 -0.23677,0.0028 0,0 0,0 0,0 -2.67669,-0.04266 -4.15145,-2.299744 -4.36957,-6.839837 -0.19006,-3.955698 0.10431,-8.836042 0.9641,-14.568444 0.17636,-1.271015 0.3351,-2.469612 0.47545,-3.598523 0,-3e-6 2e-5,-6e-6 2e-5,-9e-6 z m 19.94068,22.711143 c 0.053,-1.519392 -0.72658,-4.900368 -2.4492,-9.996042 -3.50726,-10.186125 -5.48973,-17.188984 -5.50939,-21.543229 -0.0172,-3.827136 1.53071,-5.766316 4.6824,-5.737203 3.07696,0.02843 4.55783,1.830092 4.47957,5.329017 -0.0502,2.241297 -0.0382,3.845323 0.0343,4.803894 0.0977,0.945044 0.42278,2.654492 0.96403,5.17743 0.56349,2.492619 1.11186,4.576795 1.65297,6.253965 0.31005,1.013167 0.67767,2.338229 1.09379,3.964339 0.23518,1.013902 0.44464,1.722651 0.63147,2.127375 0.14872,-0.21439 0.63962,-1.089063 1.52562,-2.675484 0.47612,-0.887421 2.27002,-3.74722 5.28174,-8.091735 3.05632,-4.430282 5.83865,-7.927571 8.21763,-10.476342 2.40626,-2.550618 4.22468,-4.071415 5.36276,-4.573681 1.14373,-0.50476 2.32512,-0.695996 3.53568,-0.572726 1.25926,0.128225 2.24626,0.634632 2.95438,1.512223 0.73258,0.880688 1.02932,1.891222 0.89956,3.029025 -0.15359,1.34687 -1.30795,2.551995 -3.43296,3.6439 -2.06641,1.090945 -5.03857,3.815135 -8.69922,8.194225 -3.63841,4.382025 -7.51707,10.018115 -11.45349,16.898436 -2.22611,3.932964 -4.06721,5.880554 -5.63806,5.826588 -1.35592,-0.04658 -2.71962,-1.078148 -4.13364,-3.093976 1e-5,10e-7 3e-5,10e-7 3e-5,10e-7 z m 52.64867,-47.047517 c -0.26285,1.639586 -1.29034,2.952037 -3.05991,3.956761 -1.76686,0.982107 -3.21624,1.395896 -4.37236,1.231128 -1.47481,-0.210183 -2.70989,-0.967646 -3.71983,-2.279541 -0.98515,-1.308569 -1.41243,-2.539624 -1.2648,-3.698957 0.21258,-1.66944 0.96025,-2.942411 2.25572,-3.809248 1.29789,-0.889596 3.04331,-1.186473 5.21821,-0.871299 1.6944,0.245538 2.98922,0.916808 3.87571,2.001078 0.91572,1.065674 1.26704,2.223884 1.06726,3.470078 z m -21.32262,26.180359 -0.004,0.03484 c 1.21922,-4.161049 1.87438,-6.497512 1.94572,-7.118358 0.19751,-1.718623 0.74207,-3.114267 1.6461,-4.184996 0.9273,-1.067111 2.09393,-1.515739 3.48866,-1.338317 1.63475,0.207954 2.85896,0.751629 3.66567,1.617695 0.80715,0.866536 1.14025,1.764722 1.00899,2.690183 -0.13231,0.932244 -0.84235,2.765702 -2.11007,5.546464 -0.10531,0.245017 -0.21052,0.490076 -0.31556,0.735177 -1.89438,4.284335 -3.12753,7.855165 -3.74447,10.640793 -0.61827,2.791636 -1.03712,5.065791 -1.26228,6.800911 -0.18382,1.416638 -0.19482,3.33069 -0.0485,5.757573 0.01,0.425709 -0.003,0.777759 -0.0397,1.055767 -0.0705,0.533902 -0.64378,1.186462 -1.71016,1.969257 -1.04431,0.785226 -2.09882,1.113515 -3.17494,0.98568 -2.82576,-0.335688 -4.02017,-2.797966 -3.53167,-7.4511 0.4137,-3.940428 1.44735,-8.7191 3.16926,-14.256468 0.36762,-1.229768 0.70666,-2.390422 1.01688,-3.485104 0,-3e-6 2e-5,-4e-6 2e-5,-6e-6 z m 34.98192,17.489142 c -7.56145,6.643887 -13.67642,9.593127 -18.95059,8.69671 -1.93498,-0.328878 -3.4678,-1.414079 -4.62611,-3.272624 -1.15696,-1.856372 -1.56588,-4.055606 -1.19042,-6.598741 0.90162,-6.106932 4.48098,-12.301616 11.16409,-18.244465 6.6929,-5.971104 13.13043,-8.291079 18.83873,-7.041289 2.90602,0.63625 4.47774,2.48563 4.71029,5.491865 2.69945,0.63425 3.78848,1.973886 3.2973,3.967531 -0.23589,0.957466 -0.9145,2.61103 -2.02917,4.990133 -2.05277,4.446485 -3.39713,8.09885 -4.06637,10.885407 -0.69828,2.907399 -1.00283,5.002481 -0.91848,6.271068 0.10645,1.277815 0.19848,2.115309 0.28296,2.522453 0.0842,0.405943 0.5082,0.917624 1.26774,1.540315 0.754,0.645475 1.02994,1.355092 0.83487,2.125287 -0.29278,1.156 -1.09224,1.977214 -2.38752,2.475034 -1.27459,0.50329 -2.50016,0.61476 -3.68797,0.33331 -3.94504,-0.93483 -4.85963,-5.617422 -2.53935,-14.141994 z m 2.09169,-19.462914 c -2.35684,-0.505543 -5.99502,1.415012 -10.68312,5.86145 -4.65379,4.421115 -7.19066,8.518673 -7.80659,12.097497 -0.32514,1.889235 -0.1138,2.897634 0.63345,3.028902 2.60055,0.456831 6.18539,-1.364755 11.00798,-5.367563 4.85514,-4.025733 7.77592,-7.73364 8.57385,-11.331544 0.25314,-1.141386 0.18756,-2.101619 -0.20192,-2.881575 -0.36102,-0.797308 -0.87027,-1.267017 -1.52365,-1.407167 z"
       id="text5"
       aria-label="Trivia&#10;" />
    <path
       style="font-weight:bold;font-size:50.8px;font-family:'Segoe Print';-inkscape-font-specification:'Segoe Print';letter-spacing:-2.91042px;baseline-shift:baseline;display:inline;overflow:visible;opacity:1;vector-effect:none;fill:#1f3a93;stroke-width:1.41357;stroke-linecap:round;stroke-linejoin:round;stroke-miterlimit:4.4;enable-background:accumulate;stop-color:#000000;stop-opacity:1"
       d="m 68.755954,72.715587 c -2.78505,0.307672 -5.459659,1.393392 -7.205973,3.436352 -1.179252,1.36307 -1.677628,3.07956 -1.853408,4.82031 -0.304171,-0.0287 -0.596297,-0.10277 -0.906407,-0.11974 -1.756752,-0.0964 -3.741387,0.0468 -6.091148,0.37727 -4.276422,0.60136 -10.157995,2.06688 -17.617211,4.51557 0.01964,-0.006 0.03929,-0.0127 0.05893,-0.0187 -6.423495,1.99837 -13.004812,3.71119 -19.799294,5.16795 -2.180928,0.4676 -3.983159,0.94576 -5.4778403,1.47437 -1.4940743,0.5284 -2.6899998,0.96603 -3.9295284,2.16292 -0.0089,0.009 -0.017868,0.0174 -0.026731,0.0261 -1.6150091,1.59253 -2.3425558,4.19978 -1.8320837,6.303121 0.5089836,2.09722 2.1659262,4.20698 4.3510388,5.00095 0.02,0.007 0.04007,0.0141 0.0602,0.02 2.4179616,0.83229 4.5714616,0.45777 7.2871736,-0.14078 1.434594,-0.31618 3.513261,-0.96295 8.221601,-2.2858 0,0 0.0028,-5.9e-4 0.0028,-5.9e-4 1.795065,-0.50505 2.298219,-0.6237 3.356226,-0.9016 0.111474,1.99496 0.268296,4.46309 0.530197,7.90211 0.607599,7.97834 1.340363,14.01266 2.176558,18.17874 0.593105,2.95495 1.192491,5.37639 1.843958,7.34442 0.790382,2.38772 2.406611,4.60097 4.68641,5.57864 0.0012,5.1e-4 0.0019,9.8e-4 0.0031,0.003 1.555964,0.67468 3.015419,1.16949 4.81926,0.84103 2.010785,-0.36616 3.881685,-1.9576 4.757898,-3.84174 0.821595,-1.72997 1.110602,-3.7686 0.79013,-5.69028 -0.122938,-0.73717 -0.349219,-1.49407 -0.742719,-2.21745 0.07444,0.16472 0.148839,0.32945 0.223187,0.49421 -0.702877,-1.93496 -1.171056,-3.65112 -1.419774,-5.12808 -0.675724,-4.01265 -1.258991,-9.66776 -1.661987,-16.7734 l -0.0019,-0.0113 c -0.357869,-6.70249 -0.462668,-10.386441 -0.47662,-11.057211 1.838136,-0.69134 4.868684,-1.55307 9.508727,-2.22526 1.930212,-0.27963 3.606677,-0.4555 4.997214,-0.53585 -0.02091,9.7e-4 -0.04183,9.7e-4 -0.06273,0.003 1.508945,-0.062 2.575212,-0.12566 3.48999,-0.23893 -0.85517,0.68302 -1.638947,1.46746 -2.101068,2.39399 -0.0076,0.0149 -0.01517,0.0299 -0.02259,0.0448 -0.951693,1.97836 -1.163253,4.203721 -0.860377,6.421041 -0.05696,-0.41698 0.01663,0.57308 -0.0048,1.75827 -0.02149,1.18943 -0.07378,2.85202 -0.152038,4.99637 -0.0016,0.003 -0.0031,0.004 -0.0047,0.006 -0.03036,1.10058 -0.07266,2.27796 -0.126373,3.52551 -0.323346,5.95008 -0.17829,11.02675 0.431367,15.28177 0.386785,2.69951 1.085676,5.02495 2.662925,6.898 1.574524,1.86982 4.2023,2.79491 6.482985,2.50541 1.955305,-0.24818 3.758225,-1.38749 5.025544,-2.91033 1.076648,-1.25981 2.336058,-2.30165 2.028473,-5.05347 -0.06387,-0.57141 -0.181528,-1.07428 -0.329589,-1.60752 -0.01202,-0.0423 -0.02474,-0.0843 -0.03825,-0.12623 -0.694434,-2.18627 -1.082797,-3.8826 -1.197958,-4.89859 -0.177663,-1.56744 -0.314033,-3.79345 -0.379899,-6.58775 -0.05881,-2.49469 0.254778,-6.0849 1.027734,-10.56956 0.0024,-0.0127 0.0047,-0.0264 0.0068,-0.0395 0.01202,-0.0772 0.02416,-0.15441 0.03626,-0.23162 -0.01329,0.60523 0.08118,1.16855 0.05388,1.77952 0,0 5.95e-4,0.006 5.95e-4,0.006 -0.230961,5.37804 0.08395,11.64318 0.886999,18.88301 0.288691,2.60269 0.917666,4.89659 2.456139,6.75511 1.535998,1.85553 4.089438,2.76691 6.335101,2.55294 1.693321,-0.16135 3.468473,-0.82759 4.735823,-2.24217 1.267823,-1.41511 1.796102,-3.31204 1.849008,-5.10385 -0.05283,0.31923 -0.105508,0.63846 -0.158046,0.95769 1.347118,-4.42639 3.577808,-9.66228 6.792263,-15.55809 0.648927,-1.19022 1.009288,-1.67312 1.562771,-2.609 0.06884,0.68977 0.139802,0.9297 0.205688,1.7246 0.304099,3.74966 0.705829,6.75605 1.269379,9.15034 0.565529,2.40269 0.959906,4.31331 3.029236,5.95708 0.007,0.006 0.0149,0.0127 0.0223,0.0181 1.83557,1.43302 3.99874,2.37156 6.26948,2.26276 2.81674,-0.135 5.33109,-1.84924 7.13908,-4.19769 1.83234,-2.35079 3.51841,-5.67611 5.55135,-10.34123 0.003,-0.009 0.007,-0.0168 0.01,-0.0251 1.18574,-2.66517 1.80133,-3.82586 2.58211,-5.43409 0.006,0.0499 0.009,0.041 0.0127,0.0909 0.62984,7.25344 1.39153,12.08972 3.37133,15.58236 0.007,0.0127 0.0146,0.0256 0.0219,0.0384 1.79674,3.0863 5.01113,5.19827 8.4006,5.18978 2.14692,-0.006 4.22162,-0.86094 5.96754,-2.20686 0.0113,-0.009 0.0215,-0.0164 0.0321,-0.0246 0.14037,-0.11068 0.23584,-0.28251 0.37341,-0.40043 2.1209,2.43778 4.9456,3.99501 8.11494,4.66768 1.05551,0.2236 2.15039,0.34985 3.27212,0.37837 5.67288,0.14425 11.06226,-1.66765 15.7617,-5.26862 0.003,-0.003 0.006,-0.006 0.009,-0.009 0.92858,-0.71656 1.48472,-1.44522 2.2851,-2.15396 0.17532,1.26964 0.51942,2.51335 1.35961,3.58411 1.2974,1.65349 3.33817,2.42401 5.21173,2.53852 1.91419,0.11703 3.46039,-0.5435 5.08603,-1.43938 0.0127,-0.007 0.0261,-0.0147 0.0391,-0.0223 2.0876,-1.1856 3.69114,-3.39176 4.19016,-5.78941 -0.006,0.0281 -0.0112,0.0563 -0.0172,0.0845 0.16658,-0.71472 0.33346,-1.42937 0.50066,-2.14399 0.0424,-0.18266 0.0705,-0.36845 0.0839,-0.55557 0.11451,-1.57104 -0.54556,-2.63573 -1.11059,-3.3617 -0.56417,-0.72483 -1.17784,-1.25508 -1.88743,-1.79204 -0.41502,-0.31405 -0.85338,-0.54797 -1.28103,-0.81169 0.1039,0.009 0.19288,0.0489 0.29751,0.056 1.23209,0.0826 2.41941,-0.4945 3.12489,-1.52055 1.19577,-1.73755 1.89208,-3.79216 2.11086,-5.94578 5.5e-4,-0.007 9.8e-4,-0.0147 9.8e-4,-0.022 0.16108,-1.70191 0.80796,-4.40616 2.01534,-7.83439 9.8e-4,-0.003 0.003,-0.006 0.003,-0.009 1.22133,-3.495171 2.47274,-7.303621 3.76338,-11.431071 9.8e-4,-0.004 0.003,-0.009 0.004,-0.0141 0.65746,-2.07256 1.16401,-3.71056 1.52284,-4.96001 0.35898,-1.24995 0.58053,-1.7671 0.67557,-2.95291 0.16344,-2.03922 -0.95271,-3.9649 -2.31175,-5.18068 -1.29504,-1.19719 -3.05347,-2.07959 -4.92517,-2.21237 -2.15616,-0.15294 -3.86579,0.61547 -5.55244,1.62359 -2.18784,1.30766 -3.66941,3.56827 -4.19549,5.98484 -0.003,0.0127 -0.006,0.0254 -0.009,0.0382 -0.17322,0.84385 -0.30553,1.51657 -0.40111,2.03285 -0.0957,0.51679 -0.15683,0.67215 -0.19621,1.33464 -0.12354,2.07816 -0.87802,5.80678 -2.30506,10.83146 -0.003,0.006 -0.004,0.0127 -0.007,0.019 -1.40165,5.049511 -2.0317,10.063141 -1.90531,14.997661 0.0267,1.01324 0.48488,1.96618 1.25501,2.61707 0.81135,0.68614 1.76673,1.11601 2.73869,1.51235 -0.83443,0.0704 -1.65686,0.20013 -2.39878,0.55847 -0.10389,-0.97659 -0.34818,-1.98182 -1.07206,-2.89499 -1.05088,-1.3257 -2.73194,-1.91717 -4.08316,-1.98631 -2.13819,-0.10942 -3.91633,0.97484 -5.23513,2.25633 -4.36505,4.20903 -8.06783,5.83958 -11.48973,5.74445 -0.28374,-0.009 -0.27098,-0.12185 -0.4458,-0.15583 5.11747,-1.48752 9.79047,-3.60172 13.56419,-6.85481 0.003,-9.8e-4 0.006,-0.003 0.009,-0.006 4.52642,-3.92693 7.40578,-8.64291 7.69469,-13.829531 0.17282,-3.10279 -0.88795,-6.17854 -2.9731,-8.53565 -2.18983,-2.47545 -5.45883,-3.8519 -8.92228,-3.98873 -4.57666,-0.18083 -8.95832,1.38474 -12.92954,4.34517 -1.87009,1.39319 -3.64749,3.09455 -5.31454,5.06786 -3.25481,3.852751 -5.39937,8.070491 -6.64192,12.466961 -0.0468,-0.49763 -0.12157,-0.62683 -0.16423,-1.16049 3e-5,-0.006 4e-5,-0.0114 6e-5,-0.0165 -0.46787,-5.5201 -1.21049,-9.560091 -2.86307,-12.632711 -1.70388,-3.1893 -5.30207,-5.2394 -9.02191,-5.18293 -3.28019,0.0498 -6.35425,1.57598 -8.79639,3.96165 -0.004,0.006 -0.01,0.0114 -0.0142,0.0169 -2.24113,2.21548 -4.22224,5.78353 -6.32705,10.383331 -0.35629,-4.06126 -0.95722,-7.412411 -3.02635,-9.823681 -2.02964,-2.39227 -5.23747,-3.75062 -8.4385,-3.56309 -4.419892,0.25893 -7.986763,3.24787 -11.060106,7.56803 -0.104505,0.14692 -0.201464,0.37455 -0.305312,0.52532 -0.244007,-2.45453 -0.929029,-4.74297 -2.651384,-6.46491 -1.815162,-1.81471 -4.56237,-2.50452 -7.106512,-2.26343 -1.804293,0.17097 -3.765372,1.04145 -4.958201,2.56763 -0.932677,1.17686 -1.327548,2.71346 -1.328235,4.17336 -0.582708,-0.90871 -1.331575,-1.69903 -2.184167,-2.25312 -1.868291,-1.21418 -4.141016,-1.48895 -6.329849,-1.22662 0.376353,-0.30972 0.819551,-0.52966 1.110427,-0.93467 0.495341,-0.68973 0.739541,-1.43416 0.919098,-2.17966 1.045556,0.27481 2.124239,0.45359 3.202416,0.33306 2.496951,-0.27913 4.323184,-1.6372 6.060721,-3.3303 0.0079,-0.007 0.01589,-0.0146 0.02379,-0.0217 1.973696,-1.9584 3.216213,-4.69854 2.96254,-7.4058 -0.201883,-2.15455 -1.473556,-4.22652 -3.268148,-5.52289 -1.898099,-1.40825 -4.440006,-1.947033 -6.83792,-1.682128 -7e-6,1.51e-4 -1.4e-5,3.04e-4 -2.1e-5,4.55e-4 z M 269.89291,85.713299 c -2.20652,-0.32491 -4.96704,-0.57731 -8.32971,-0.76261 -3.80581,-0.23544 -6.76143,-0.49104 -8.78391,-0.7618 -1.56948,-0.25669 -3.14016,-0.51045 -4.71201,-0.76118 -0.0356,-0.006 -0.0713,-0.01 -0.10714,-0.0141 -2.22777,-0.28934 -4.46158,0.48537 -6.1728,1.74736 -1.69955,1.25267 -3.05293,3.15653 -3.3184,5.3191 -0.20922,1.70427 0.47192,3.62272 1.5938,4.86049 0.51182,0.56469 1.23269,0.78468 1.84074,1.17715 -0.15889,0.63394 -0.213,1.02853 -0.54158,1.99988 -0.0127,0.0363 -0.0249,0.0728 -0.0365,0.10955 -2.62818,8.727561 -4.7038,17.165111 -6.25447,25.299481 -0.004,0.0218 -0.007,0.0435 -0.0113,0.0655 -0.47641,2.7803 -0.92904,4.65864 -1.15546,5.32786 -0.27946,0.52762 -0.5586,1.05534 -0.83741,1.58315 -0.65343,0.95769 -1.21296,1.82549 -1.39624,3.33477 -0.27053,2.2278 0.57092,3.71101 1.52916,5.26831 1.15128,1.87102 3.13051,3.42995 5.38425,3.72092 2.31078,0.29834 4.65257,-0.26911 6.8145,-1.39374 -0.039,0.019 -0.078,0.0379 -0.11704,0.0567 1.22272,-0.57784 2.21766,-0.93732 2.87915,-1.10052 0.57734,-0.14244 2.1946,-0.38271 4.46914,-0.56602 0.006,-1.7e-4 0.0113,-3.4e-4 0.0165,-5.3e-4 9.39947,-0.80193 17.93033,-3.52434 25.41881,-8.25146 0.003,-9.7e-4 0.006,-0.003 0.01,-0.004 7.57664,-4.80532 12.48528,-11.27243 13.74658,-18.99206 1.09933,-6.72844 -0.39112,-13.079931 -4.51184,-18.090121 -9.7e-4,-9.8e-4 -7.5e-4,-0.004 -9.7e-4,-0.006 -4.07852,-5.00794 -10.12183,-8.09236 -17.4144,-9.16618 -6e-5,3e-5 -1.2e-4,6e-5 -1.7e-4,9e-5 z M 69.527696,79.739919 c 0.904728,-0.0998 1.113796,0.0141 1.424103,0.24446 0.02412,0.0179 0.04847,0.0358 0.07305,0.0531 0.442478,0.31241 0.396289,0.28433 0.432961,0.62812 0.06332,0.59357 0.0082,0.91403 -0.854258,1.77764 -1.090323,1.05564 -1.807795,1.23863 -1.57166,1.2122 -0.435131,0.0486 -0.620618,0.0397 -1.285562,-0.49363 -0.745105,-0.62416 -0.808878,-0.92079 -0.818391,-1.00356 -0.106201,-0.92405 0.01719,-1.16225 0.373658,-1.56828 0.0086,-0.01 0.01726,-0.0204 0.02579,-0.0306 0.269264,-0.31365 0.738692,-0.65813 2.200287,-0.81942 10e-7,0 3e-6,0 5e-6,0 z m -5.745665,2.69847 c 0.01088,0.009 0.02164,0.0178 0.03247,0.0267 -0.0054,-0.004 -0.01046,-0.004 -0.01579,-0.01 -0.0063,-0.006 -0.01046,-0.0127 -0.01678,-0.0174 3.3e-5,0 6.8e-5,-2e-5 1.02e-4,-3e-5 z m 125.689839,0.27974 c 0.0459,0.003 0.12341,0.0373 0.34395,0.22922 -0.0421,0.14236 -0.0727,0.34218 -0.3036,1.17081 -0.31768,1.13967 -0.79611,2.73722 -1.42838,4.785 -9.8e-4,0.004 -0.003,0.009 -0.004,0.0141 -1.23715,4.06755 -2.4353,7.80847 -3.59586,11.214571 -0.97189,2.83061 -1.36768,5.01919 -1.74109,7.1978 0.26953,-2.58959 0.70054,-5.21147 1.46763,-7.888001 -0.003,0.007 -0.004,0.0127 -0.007,0.019 1.53709,-5.24573 2.45587,-9.19968 2.66864,-12.31136 -0.0277,0.40588 0.0142,-0.0508 0.0992,-0.49388 0.0841,-0.43394 0.21429,-1.06786 0.38427,-1.86295 0.21652,-0.95567 0.44045,-1.18701 0.93934,-1.48415 0.99619,-0.59328 1.53199,-0.56431 1.17648,-0.58954 8e-5,0 1.6e-4,-1e-5 2.5e-4,-2e-5 z m 79.39183,9.99062 c 5.92379,0.87209 9.98507,3.07489 12.85011,6.5873 0.004,0.006 0.01,0.0113 0.0144,0.0162 2.87884,3.486151 3.87315,7.350101 3.04874,12.525751 -0.88902,5.58114 -4.11066,10.10727 -10.48009,14.15938 -2.09554,1.32648 -4.32296,2.40697 -6.6116,3.37534 2.4885,-1.08295 4.86509,-2.32759 6.97276,-3.92326 4.78081,-3.61945 7.89862,-8.50567 8.79201,-14.14393 0.73207,-4.62023 -0.45354,-9.16927 -3.48487,-12.575681 -2.92706,-3.33629 -7.1645,-5.34127 -12.08925,-6.11316 0.26424,0.0343 0.74689,0.0566 0.98768,0.092 1e-5,-2e-5 1e-5,-3e-5 3e-5,-5e-5 z m -3.54055,-0.32682 c -2.78029,-0.30714 -5.67679,-0.57243 -9.23545,-0.59731 -0.50453,-0.006 -0.89633,-0.0184 -1.11318,-0.0327 -1.67293,-0.11026 -3.19309,0.921 -3.67446,2.48796 -4.66557,15.174141 -7.38988,26.041701 -8.27932,32.842681 -0.17272,1.32063 -0.2952,2.25864 -0.11181,3.51174 0.22872,1.55932 1.45032,2.77484 2.99412,2.98284 1.44825,0.19424 2.57604,0.0375 4.4734,-0.18079 1.89928,-0.2185 4.32732,-0.57369 7.36479,-1.06 0.003,-5.2e-4 0.006,-9.8e-4 0.009,-9.8e-4 2.84184,-0.46236 5.45785,-1.26054 7.97956,-2.19298 -4.21743,1.56096 -8.71809,2.61567 -13.64462,3.03638 -2.42927,0.19627 -4.15967,0.39928 -5.55038,0.74295 -1.31278,0.32443 -2.66983,0.85408 -4.17056,1.56544 -0.0395,0.0192 -0.0788,0.039 -0.11761,0.0597 -1.22737,0.64062 -2.07103,0.75732 -2.7589,0.66856 -0.059,-0.007 -0.003,0.15937 -0.3891,-0.47059 -0.24326,-0.3974 -0.31297,-0.64422 -0.36953,-0.81875 0.0282,-0.0438 -0.0419,0.1251 0.23562,-0.27606 0.0783,-0.11266 0.15022,-0.22991 0.21517,-0.35105 0.3521,-0.66201 0.70468,-1.32386 1.05775,-1.98556 0.0808,-0.15093 0.15065,-0.30756 0.20905,-0.46869 0.57408,-1.5889 1.0007,-3.63093 1.53513,-6.63799 -0.004,0.0218 -0.007,0.0436 -0.0114,0.0655 1.55167,-7.8744 3.62054,-16.07704 6.23708,-24.58906 -0.0127,0.0373 -0.0249,0.0746 -0.0375,0.1121 0.6606,-1.917621 1.09995,-3.428171 1.28828,-4.847051 0.0966,-0.72757 0.0397,-1.72753 -0.48737,-2.67488 -0.52736,-0.94781 -1.46707,-1.6196 -2.24587,-1.92053 0.006,9.8e-4 0.0113,0.003 0.0164,0.004 -0.49288,-0.19291 -0.50496,-0.24887 -0.71146,-0.38175 0.0783,-0.0719 -0.0191,-0.0358 0.14887,-0.15898 0.63848,-0.46903 0.75572,-0.40617 0.86914,-0.39143 1.56084,0.24925 3.12067,0.50153 4.67948,0.75674 0.0355,0.006 0.0709,0.01 0.10644,0.0143 2.3558,0.3157 5.42977,0.57432 9.34406,0.81621 0.009,2.8e-4 0.0171,5.4e-4 0.0255,7.6e-4 1.7163,0.0947 2.78502,0.24295 4.11998,0.36898 -7e-5,10e-6 -1.4e-4,4e-5 -2.2e-4,7e-5 z M 53.68031,88.225899 c 2.029965,-0.28527 3.611329,-0.36641 4.586396,-0.31315 0.974784,0.0533 1.230802,0.38202 0.69641,-0.0525 0.01074,0.009 0.02161,0.0177 0.03249,0.0263 0.401339,0.31866 0.321352,0.28504 0.337983,0.3205 -0.547769,0.0489 -1.119061,0.10078 -2.249262,0.14717 -0.02119,8.2e-4 -0.04237,9.8e-4 -0.06354,0.003 -1.665926,0.0963 -3.541817,0.297 -5.641803,0.60139 -1.041759,0.15101 -1.730303,0.33138 -2.666522,0.4909 1.433347,-0.31577 3.895455,-1.07288 4.96784,-1.22358 1e-6,0 3e-6,0 3e-6,0 z m -13.470369,3.43827 c -0.816871,0.32121 -1.820589,0.57205 -2.509079,0.95894 -0.396542,0.2226 -0.74702,0.51398 -1.033447,0.85907 -0.82509,0.99546 -0.866656,1.63568 -0.967152,2.19205 -0.100788,0.55798 -0.130388,1.0641 -0.140226,1.61923 -0.02783,1.57057 0.202833,5.231871 0.684161,12.393281 6.46e-4,0.004 0.0013,0.007 0.002,0.0113 0.51151,7.25752 1.183593,13.08806 1.992335,17.51063 0.369595,2.02109 0.99695,4.14136 1.849057,6.39432 0.06336,0.16857 0.138954,0.33205 0.226108,0.48902 -0.06421,-0.11493 -0.05715,-0.15193 -0.0405,-0.0601 0.100575,0.55502 0.06033,0.85762 -0.16774,1.34296 -0.007,0.0161 -0.01399,0.0324 -0.02072,0.0486 -0.144331,0.31955 0.169291,0.009 0.06412,0.0276 0.382978,-0.0697 -0.119573,0.0153 -1.073591,-0.40088 -0.0051,-0.003 -0.01004,-0.006 -0.01511,-0.009 -0.170237,-0.0732 -0.368112,-0.11889 -0.715799,-1.22023 -0.480458,-1.52185 -1.006967,-3.71853 -1.523009,-6.49476 -0.675344,-3.63328 -1.328858,-9.53693 -1.816233,-17.38095 -0.245181,-3.94605 -0.399941,-6.95383 -0.472651,-8.93056 -0.03654,-0.99338 -0.05062,-1.745231 -0.04891,-2.192151 8.52e-4,-0.22352 0.0063,-0.38049 0.0064,-0.38244 7.3e-5,-9.8e-4 0.0028,0.0317 -0.02615,0.19255 -0.02979,0.16482 0.287535,0.30299 -0.722428,1.535591 0.94828,-1.156461 1.076229,-2.758541 0.30357,-4.019631 -0.77283,-1.26137 -2.2859,-1.91462 -3.79608,-1.63222 -1.224469,0.22865 -3.674309,0.87505 -8.202435,2.14895 -4.611367,1.29543 -7.596078,2.13264 -7.795099,2.17646 -1.438727,0.31682 -1.664188,0.24201 -2.145604,0.24539 0.141489,-0.0614 0.02814,-0.0179 0.200387,-0.0789 1.019292,-0.36052 2.555281,-0.78477 4.519921,-1.20628 7.016404,-1.5054 13.835035,-3.27964 20.503219,-5.35277 0.01849,-0.006 0.03693,-0.0113 0.05531,-0.0179 1.255744,-0.41192 1.673023,-0.41456 2.825354,-0.76696 4e-6,1e-5 9e-6,4e-5 1.3e-5,5e-5 z m 226.386079,7.87229 c 3.77773,0.552601 6.23249,1.851251 7.95374,3.809491 0.007,0.009 0.0144,0.0171 0.0216,0.0257 1.71541,1.91544 2.28584,3.83742 1.8249,6.8314 -0.59749,3.88074 -2.44486,6.89626 -6.02477,9.61675 -3.65392,2.77675 -8.15687,4.62703 -13.73364,5.53531 -2.66284,0.42669 -4.62349,0.6995 -6.2837,0.904 0.924,-5.64904 3.26868,-14.89055 7.08547,-27.316421 3.5094,0.0724 6.72591,0.23829 9.15639,0.59382 -10e-6,0 -10e-6,-2e-5 -3e-5,-2e-5 z m -37.44673,-4.07978 c -1.79454,-0.20555 -3.64176,-0.0893 -5.33137,0.86682 0.0113,0.0161 0.0229,0.0321 0.0342,0.0482 -0.0331,-0.007 -0.0664,-0.0127 -0.0996,-0.0194 -0.12369,0.0755 -0.19597,0.21286 -0.3149,0.29332 -0.0113,-0.0161 -0.0229,-0.0321 -0.0343,-0.0482 -0.0127,0.01 -0.0266,0.0194 -0.0398,0.029 -0.006,0.0346 -0.01,0.0693 -0.0143,0.10404 -1.01459,0.70581 -1.92307,1.51782 -2.7074,2.53472 -0.0127,0.0162 -0.0243,0.0325 -0.0362,0.0489 -0.83965,1.128671 -1.58281,1.887071 -1.7863,3.816801 -0.2014,1.90999 0.37061,3.50384 1.16723,5.14103 0.0219,0.0113 0.0439,0.0235 0.0661,0.0349 1.01199,2.07121 2.88751,4.07465 5.45776,4.36563 2.54715,0.28838 5.17004,-0.28516 7.29352,-1.69334 2.01371,-1.31858 3.70113,-3.38077 4.00599,-5.86179 l 0.0388,-0.31521 c 0.13896,-1.13029 0.34707,-2.11036 -0.37864,-3.69379 -0.39105,-0.9244 -0.76302,-1.309481 -1.16762,-1.755161 -0.42971,-0.47333 -0.92133,-0.94681 -1.51537,-1.48343 -0.14149,-0.12792 -0.29318,-0.24456 -0.4536,-0.34873 0.55598,0.36025 0.17093,0.1203 -0.003,-0.0253 -0.0696,-0.0584 -0.14122,-0.11422 -0.215,-0.16731 -1.22125,-0.87728 -1.8238,-1.62624 -3.96646,-1.8717 1.4e-4,5e-5 2.7e-4,8e-5 4e-4,1.2e-4 z m -65.38251,-1.42558 c 1.90495,0.075 2.87347,0.55947 3.76394,1.55839 0.99643,1.11782 1.33207,2.07047 1.26397,3.54111 -0.0174,0.37449 -0.26875,0.74296 -0.33098,1.114681 -0.004,-1.338131 -0.40136,-2.780581 -1.27237,-3.905601 -0.92255,-1.22471 -2.59633,-2.11505 -4.16219,-2.24059 0.24535,-0.006 0.49229,-0.0776 0.73763,-0.068 z m -83.53754,3.23112 c 0.678381,-0.032 0.949225,0.0302 1.085529,0.16485 0.15982,0.1579 0.597768,0.84362 0.747175,2.4793 0.02921,0.319651 -0.18477,4.233671 -0.876559,9.922111 -0.438974,3.52239 -0.61957,6.07685 -0.417969,8.16031 0.776059,2.32706 3.571094,3.17194 5.454737,1.6656 -1.345103,3.09208 -2.462619,6.03959 -3.266429,8.78095 -0.09075,0.31099 -0.13925,0.63379 -0.144354,0.95922 -0.01074,0.63043 -0.113071,0.59416 -0.01778,0.48699 0.09528,-0.10715 0.152824,-0.0113 -0.436099,0.0442 -0.652824,0.0623 -0.38058,0.0996 -0.531324,-0.0849 -0.149721,-0.18335 -0.609891,-1.10355 -0.785185,-2.89452 -0.684937,-6.99796 -0.894276,-12.9403 -0.623943,-17.82402 l -5.26e-4,-0.006 c 0.230631,-4.0396 0.158701,-7.98449 -0.18726,-11.854561 -4e-6,-3e-5 -1e-5,-5e-5 -1.4e-5,-8e-5 z m 77.01332,-1.4818 c -1.47866,0.95884 -2.87544,2.20354 -4.21758,3.72787 -0.78116,0.887231 -1.49691,1.802041 -2.14503,2.742311 0,-1e-5 0,0 0,0 -1.74868,2.53688 -3.00233,5.25639 -3.72336,8.11871 -0.26043,1.90303 1.03776,3.66485 2.90825,3.97643 -0.86129,0.19398 -1.88181,0.64195 -2.64502,1.53979 -0.77791,0.91512 -1.09968,2.12229 -1.11378,3.07039 -0.0319,2.15115 0.94169,4.18819 2.29897,5.70377 0.0182,0.02 0.0366,0.0395 0.0553,0.0589 0.50629,0.53971 1.08347,0.99862 1.70776,1.37628 1.36933,0.82718 2.96768,1.26606 4.54956,1.3097 1.76692,0.0487 3.50422,-0.28034 5.22913,-0.77695 -2.05076,0.76985 -4.17431,1.20319 -6.49993,1.14352 -1.29906,-0.0334 -2.37731,-0.20412 -3.30361,-0.51935 -1.29248,-0.44051 -2.28657,-1.16259 -3.16414,-2.17984 -1.49018,-1.75103 -2.3582,-4.23346 -2.30998,-8.06555 0.0697,-5.53939 1.93242,-10.64133 6.02924,-15.61425 0,0 0,0 0,0 0.12821,-0.15558 0.25852,-0.31103 0.39105,-0.46635 2.0434,-2.394501 4.01695,-4.033691 5.95311,-5.145461 0,2e-5 1e-5,3e-5 3e-5,3e-5 z m -91.832512,4.693851 c 1.0466,-0.12736 1.387335,0.0452 1.491498,0.11238 0.369968,0.23853 0.07591,-0.004 0.0542,-0.18713 -0.01822,-0.15348 -0.09119,1.98464 -0.589906,4.88825 -0.0048,0.0246 -0.0093,0.0492 -0.01357,0.0739 -0.03701,0.251 -0.07393,0.50199 -0.110739,0.75297 -0.763585,4.76067 -1.092507,8.68632 -0.974864,11.9007 0.10698,2.92298 0.274511,5.30674 0.516264,7.21487 0.212153,1.67451 0.749999,3.59933 1.455753,5.78936 -0.04677,0.13174 -0.01917,0.18157 -0.199103,0.39485 -0.0086,0.01 -0.01707,0.0206 -0.0255,0.0309 -0.420281,0.50996 -0.548873,0.52529 -0.787239,0.55559 -0.619314,0.0788 -0.317765,0.13796 -0.518111,-0.10361 -0.199105,-0.24002 -0.721768,-1.28081 -0.971977,-3.21133 -0.466763,-3.60133 -0.563313,-8.28565 -0.185546,-13.91868 0.0012,-0.0127 0.0023,-0.0263 0.0034,-0.0394 0.0714,-1.27494 0.127065,-2.47505 0.173593,-3.61581 0.0025,-0.003 0.0051,-0.004 0.0076,-0.007 0.107389,-2.1777 0.181743,-3.87314 0.221341,-5.15346 0.03939,-1.27398 0.104816,-1.81537 -0.02088,-2.83678 -0.147375,-1.19763 0.01018,-1.92648 0.269006,-2.46334 0.115927,-0.2775 -0.111022,-0.13952 0.204915,-0.1779 -3.6e-5,2e-5 -7.1e-5,3e-5 -1.06e-4,5e-5 z m 35.509022,-2.582531 c 1.25457,-0.0734 1.70612,0.11704 2.50956,1.05345 0.007,0.007 0.0141,0.0141 0.0207,0.021 0.16454,0.18848 1.49907,3.624341 1.83831,9.292321 0.15602,2.75749 0.33359,4.84478 0.57659,6.4169 0.12185,0.78852 0.23752,1.42466 0.49794,2.16213 0.13032,0.36907 0.26846,0.77061 0.70943,1.34991 0.44068,0.57892 1.58386,1.56129 3.10147,1.49394 1.65565,-0.0735 2.09154,-0.68615 2.40935,-1.07231 -0.7525,1.42812 -1.7035,3.65358 -2.20108,4.29785 -0.006,0.007 -0.01,0.0152 -0.0152,0.0228 -0.99803,1.31269 -1.55199,1.5001 -2.09642,1.52624 -0.3254,0.0156 -0.85209,-0.096 -1.77925,-0.81342 0.6189,0.48985 -0.10178,-0.20136 -0.49452,-1.9603 -0.40066,-1.79457 -0.75926,-4.54315 -1.00295,-8.08429 0,0 -2.9e-4,-0.006 -2.9e-4,-0.006 -0.23495,-3.32013 -0.49528,-5.82573 -0.84024,-7.69682 -0.17236,-0.93462 -0.33865,-1.68938 -0.68402,-2.51871 -0.17258,-0.41442 -0.3682,-0.86663 -0.8859,-1.44192 -0.51814,-0.57575 -1.70829,-1.39477 -3.139316,-1.30713 -2.004437,0.1227 -2.610419,0.99055 -3.25112,1.61976 -0.642085,0.63059 -1.194536,1.33511 -1.805311,2.19723 -0.913829,1.28985 -2.05325,3.29844 -3.195174,5.32932 1.395928,-2.97307 2.783868,-5.46853 4.104509,-7.30252 2.484884,-3.450811 4.526125,-4.515751 5.622782,-4.579891 -3e-5,1e-5 -4e-5,1e-5 -7e-5,1e-5 z m 26.29748,-0.96312 c 1.60062,-0.0244 1.87047,0.14493 2.56767,1.43017 0.003,0.004 0.006,0.01 0.009,0.0141 0.74757,1.36403 1.68157,4.839821 2.17034,9.936981 0.39324,4.30879 0.87515,7.61413 1.56619,10.14824 0.003,0.0113 0.006,0.0239 0.009,0.0359 0.69697,2.45961 2.15149,4.57616 4.18752,5.91152 -0.0738,0.0676 -0.0559,0.0674 -0.16401,0.15454 -0.83325,0.64221 -1.37218,0.79035 -1.87551,0.79156 -1.18626,0.003 -1.59552,-0.19065 -2.47205,-1.71272 -0.66,-1.19219 -1.7938,-5.77055 -2.31049,-12.63479 -9.8e-4,-0.0113 -9.8e-4,-0.022 -0.003,-0.0331 -0.2926,-3.45966 -0.53168,-5.63969 -1.03218,-7.38373 -0.21935,-0.82697 -0.49062,-1.64674 -1.18537,-2.51595 -0.70498,-0.88201 -2.18711,-1.767811 -3.63043,-1.740751 -1.49782,0.0282 -2.24439,0.55324 -2.81614,1.114681 0.37166,-0.506891 0.86593,-1.331391 1.13856,-1.600351 9.3e-4,-9.6e-4 9.8e-4,-9.7e-4 0.003,-0.003 1.50627,-1.4594 2.66198,-1.89512 3.83932,-1.91305 -1.4e-4,0 -2.9e-4,2e-5 -4.1e-4,2e-5 z m 100.61046,5.538851 c 0.18416,0.0779 0.63316,0.2513 1.0795,0.57133 0.009,0.007 0.0416,0.0315 0.0489,0.039 0.37356,0.33648 0.59002,0.55686 0.78927,0.76126 -7.3e-4,0.0559 0.0141,0.0506 0.007,0.11477 l -0.0366,0.31544 c -0.007,0.0645 0.059,0.22268 -0.84744,0.81637 -0.009,0.006 -0.0181,0.0113 -0.0271,0.0162 -0.66987,0.44726 -1.33267,0.53795 -2.24726,0.48493 -0.0321,-0.0716 -0.0299,-0.0767 -0.16367,-0.36312 -0.009,-0.004 -0.016,-0.007 -0.0241,-0.0114 -0.37882,-0.79385 -0.36579,-1.01654 -0.3886,-1.05809 0.0729,-0.16125 0.14801,-0.34197 0.3409,-0.6062 0.48897,-0.62186 0.86979,-0.93972 1.09384,-1.09037 -0.0462,0.0256 0.2768,0.0239 0.37598,0.01 1e-5,3e-5 3e-5,5e-5 4e-5,8e-5 z m -2.94404,16.9976 c -1.64831,-0.18701 -3.0875,0.25373 -4.44752,0.89394 -1.27022,0.5892 -2.40725,1.24118 -3.35775,2.49599 -0.01,0.0112 -0.0191,0.0238 -0.0286,0.0358 -1.01904,1.3825 -1.22626,2.6981 -1.37631,4.12995 -0.31593,3.01471 -0.78488,5.32152 1.35107,7.85095 1.46797,1.73841 3.49327,2.36344 5.54244,2.59598 2.82352,0.32045 4.10545,-0.91067 6.06117,-2.26955 9.8e-4,-8.2e-4 9.8e-4,-9.8e-4 0.003,-0.003 2.47139,-1.68923 4.19259,-4.45299 4.55846,-7.44932 0.28153,-2.30551 -0.98184,-4.77373 -2.70663,-6.10401 -1.59695,-1.24452 -3.55162,-1.945 -5.59942,-2.17735 -1e-5,5e-5 -2e-5,8e-5 -5e-5,1.2e-4 z m -0.79563,7.02366 c 1.01708,0.11549 1.61226,0.39111 2.06498,0.73699 -0.16098,0.92906 -0.46854,1.47503 -1.40127,2.11505 -0.006,0.004 -0.0127,0.01 -0.0181,0.0146 -1.5141,1.05502 -2.71224,0.9367 -1.37288,1.08855 -1.09424,-0.12411 -1.2622,-0.4233 -1.06046,-0.18354 0.86791,1.03144 0.0417,-0.10319 0.30839,-2.48542 0.0859,-0.76772 0.29931,-0.98739 0.0379,-0.63202 -0.15712,0.20569 0.0335,-0.0518 0.70522,-0.3624 0.007,-0.004 0.0156,-0.007 0.0232,-0.0113 0.65182,-0.3071 0.93454,-0.25533 0.71309,-0.28049 -4e-5,1e-4 -7e-5,2e-4 -1.1e-4,2.9e-4 z m -44.28401,-2.96864 c -0.3318,-0.0207 0.17888,0.0556 0.97252,0.63663 -0.0467,0.20533 -0.0932,0.41069 -0.13966,0.61603 -0.006,0.0281 -0.0113,0.0564 -0.0165,0.0848 -0.12822,0.64378 -0.18454,0.71333 -0.73712,1.02898 -0.98452,0.53012 -1.60288,0.5755 -1.36529,0.59002 -0.61738,-0.0378 -0.39588,-0.0846 -0.26722,0.0805 0.12878,0.1653 -0.0571,0.0493 -0.003,-0.84341 -0.004,0.0769 0.1104,-0.53449 0.95067,-1.53983 0.70021,-0.83781 0.74602,-0.6448 0.60524,-0.6536 1.1e-4,-3e-5 2.4e-4,-7e-5 3.7e-4,-1e-4 z"
       id="path28" />
    <path
       style="font-weight:bold;font-size:50.8px;font-family:'Segoe Print';-inkscape-font-specification:'Segoe Print';letter-spacing:-2.91042px;fill:#9dc5f6;stroke-width:7.06784;stroke-linecap:round;stroke-linejoin:round;stroke-miterlimit:4.4"
       d="m 40.187801,95.988469 c -0.180806,0.22422 -0.274553,0.77669 -0.280269,1.65727 -0.0055,0.83901 0.251973,4.961411 0.822267,12.111381 0.595275,7.16892 1.341788,12.9014 2.165911,17.10022 0.341993,1.74242 0.923997,3.64908 1.737954,5.72774 0.171978,0.29962 0.297826,0.65574 0.377993,1.06839 0.240492,1.23789 0.10719,2.41725 -0.390858,3.53867 -0.476548,1.11751 -1.238775,1.78113 -2.292357,1.99641 -0.710181,0.14512 -1.688878,-0.0461 -2.94635,-0.56746 -1.229857,-0.50252 -2.149583,-1.6174 -2.75273,-3.35016 -0.602594,-1.73116 -1.218193,-4.02701 -1.839076,-6.87755 -0.844128,-3.87545 -1.681972,-9.83238 -2.408044,-17.72202 -0.72855,-7.91654 -0.974371,-11.980611 -0.817443,-12.180571 -0.586392,0.12299 -3.380639,0.88211 -7.870963,2.267161 -4.718629,1.45354 -7.116528,2.24092 -8.0006,2.46274 -2.430731,0.60982 -4.186484,0.7595 -5.287726,0.42093 -1.1052966,-0.36058 -1.8340206,-1.1808 -2.1804686,-2.46739 -0.3099487,-1.15104 -0.048,-2.165751 0.79539,-3.041221 0.8609873,-0.87533 3.3819156,-1.87566 7.5387156,-2.88801 6.930545,-1.68787 13.644362,-3.59674 20.209854,-5.77142 7.336009,-2.55615 13.118051,-4.06088 17.023547,-4.66385 4.40835,-0.6806 7.165493,-0.54456 8.254718,0.32018 1.086073,0.84158 1.689728,1.7515 1.819377,2.72416 0.29966,2.24815 -0.592706,3.50547 -2.663031,3.79639 -0.678653,0.0954 -1.766698,0.17867 -3.285254,0.2609 -1.534625,0.10856 -3.318284,0.32026 -5.340395,0.64274 -6.083183,0.97013 -10.23776,2.17827 -12.390162,3.43437 z m 35.704741,-15.86926 c 0.176212,1.65066 -0.457443,3.18608 -1.881019,4.61546 -1.426695,1.40667 -2.702339,2.18022 -3.846351,2.31816 -1.45963,0.17602 -2.831172,-0.24039 -4.12673,-1.2514 -1.271113,-1.01414 -1.988838,-2.09644 -2.141437,-3.25464 -0.219742,-1.66778 0.169552,-3.08735 1.178941,-4.25422 1.006068,-1.18964 2.584016,-1.92058 4.723682,-2.17525 1.666899,-0.19843 3.064224,0.11421 4.183496,0.9306 1.141976,0.79071 1.775461,1.81648 1.909418,3.07129 z m -13.741854,30.756691 0.005,0.0346 c 0.134388,-4.32798 0.176265,-6.76036 0.08933,-7.37503 -0.242122,-1.71195 -0.0685,-3.19897 0.530554,-4.462201 0.622426,-1.26579 1.628806,-1.99396 3.012139,-2.17667 1.621478,-0.21414 2.934107,-9.7e-4 3.930216,0.62782 0.996522,0.63014 1.547602,1.41168 1.659528,2.33943 0.112548,0.932981 -0.09743,2.889821 -0.605853,5.900421 -0.03867,0.26376 -0.07724,0.52753 -0.115686,0.79129 -0.728632,4.62771 -1.01222,8.38932 -0.8983,11.24139 0.114102,2.85671 0.288089,5.16003 0.513466,6.89519 0.183838,1.41536 0.664451,3.26914 1.433371,5.57559 0.119927,0.40864 0.197585,0.75218 0.233184,1.03025 0.06835,0.53379 -0.326405,1.3122 -1.174629,2.34216 -0.825953,1.02673 -1.7813,1.6139 -2.874234,1.76452 -2.873263,0.39594 -4.667027,-1.68825 -5.357195,-6.31221 -0.584939,-3.91895 -0.77099,-8.7975 -0.490817,-14.58955 0.04782,-1.28199 0.08473,-2.49026 0.109919,-3.62708 2e-6,-1e-5 3e-6,-1e-5 4e-6,-1e-5 z m 25.081932,18.39299 c -0.0433,2.42402 -1.204482,3.73553 -3.473724,3.96429 -2.87956,0.29031 -4.575897,-1.73409 -5.066352,-6.12712 -0.794396,-7.11543 -1.100825,-13.21454 -0.88359,-18.34843 0.175894,-3.99303 0.07219,-7.88265 -0.334056,-11.671401 -0.09718,-0.90635 0.119898,-1.69398 0.654717,-2.36162 0.532298,-0.69079 1.339907,-1.09268 2.419878,-1.20132 3.610765,-0.36319 5.590905,1.61041 5.968779,5.84383 0.124393,1.393661 -0.198782,4.915051 -0.90638,10.682111 -0.42975,3.41616 -0.561136,5.89273 -0.417262,7.40046 5.138324,-15.23512 10.918975,-23.027161 16.4274,-23.353791 2.22822,-0.13217 4.06114,0.64004 5.48092,2.30313 1.4479,1.66683 2.31438,5.460321 2.62923,11.398471 0.26809,5.4208 0.66587,8.11918 1.19457,8.09625 0.41375,-0.0179 1.72071,-2.71153 4.03237,-8.06048 2.5701,-5.91574 4.89541,-9.836361 6.85199,-11.748161 1.98481,-1.91662 4.10607,-2.88914 6.3342,-2.91411 2.66082,-0.0298 4.59587,1.08911 5.7895,3.33233 1.19561,2.22355 2.01672,5.985701 2.47003,11.299171 0.33906,4.20939 0.79022,7.39505 1.35348,9.54769 0.58662,2.15424 1.58331,3.58641 2.98996,4.30081 1.13555,0.57215 1.69294,1.42163 1.67821,2.54376 -0.0127,1.00601 -0.67422,2.01365 -1.97251,3.03141 -1.298,0.99433 -2.60658,1.49002 -3.93567,1.48727 -2.29647,-0.004 -4.09823,-1.16483 -5.42775,-3.49503 -1.30372,-2.34779 -2.23234,-7.07412 -2.77717,-14.1514 -0.29441,-3.41278 -0.60344,-5.66609 -0.92319,-6.76196 -0.29645,-1.11923 -0.74052,-1.67489 -1.32974,-1.66594 -0.5185,0.009 -1.26098,0.86201 -2.2141,2.56508 -0.93704,1.65055 -2.60201,5.06489 -4.82008,10.08369 -1.97004,4.55267 -3.63439,7.74155 -5.06028,9.57826 -1.40098,1.83288 -2.93288,2.78696 -4.61696,2.86647 -1.30263,0.0615 -2.64338,-0.45576 -4.03628,-1.55055 -1.3644,-1.09126 -2.33449,-5.29535 -2.88623,-12.59197 -0.50466,-6.50741 -1.12473,-9.73932 -1.85343,-9.69399 -0.987256,0.0613 -3.205986,3.10339 -6.457123,9.16643 -3.247344,6.05598 -5.507633,11.48543 -6.883357,16.20636 z m 87.25555,-10.8837 c -0.14914,2.43213 -2.34497,5.19359 -6.50928,8.36919 -4.1606,3.15036 -8.68041,4.63046 -13.63854,4.47183 -2.04219,-0.0653 -3.83888,-0.46884 -5.39891,-1.21714 -1.34722,-0.64667 -2.51798,-1.55209 -3.51445,-2.71901 -2.14446,-2.53505 -3.21327,-6.02296 -3.1568,-10.46381 0.0833,-6.54435 2.44213,-12.66728 7.27715,-18.282511 0.055,-0.0639 0.11011,-0.12737 0.1652,-0.19057 4.78349,-5.48172 9.92724,-8.10248 15.25419,-7.85554 2.68229,0.1244 4.79498,1.06717 6.32444,2.81248 1.53018,1.74611 2.21946,3.76497 2.08624,6.05049 -0.23657,4.058381 -2.43508,7.807091 -6.50703,11.299371 -4.07249,3.47042 -9.11473,5.7841 -15.15955,7.01975 -0.69519,0.14451 -1.05107,0.55646 -1.06909,1.23399 -0.0298,1.12174 0.42381,2.20842 1.35394,3.26329 0.95386,1.03236 2.23696,1.57299 3.85612,1.6284 4.58451,0.15692 9.22414,-2.05526 14.05708,-6.63394 0.92789,-0.88509 1.81046,-1.30304 2.6426,-1.25443 1.38807,0.0811 2.03247,0.90626 1.93669,2.46816 z m -23.01192,-7.2355 c 3.69248,-0.64753 6.98167,-2.10515 9.89115,-4.39203 2.93358,-2.28645 4.46755,-4.3917 4.56209,-6.35502 0.037,-0.770161 -0.1564,-1.422791 -0.58209,-1.957601 -0.40085,-0.55693 -0.9457,-0.85138 -1.63333,-0.8823 -2.06274,-0.0928 -4.42024,1.30712 -7.02356,4.209191 -2.60378,2.90259 -4.33129,6.03499 -5.21426,9.37776 z m 33.65566,3.21977 c -2.3187,-0.17393 -4.08088,-0.77632 -5.29407,-1.81915 -0.0628,-4.5698 0.57321,-9.2236 1.94641,-13.952591 1.52096,-5.12396 2.38744,-8.95943 2.57278,-11.55318 0.0182,-0.25525 0.20734,-1.21604 0.5686,-2.87553 0.38726,-1.6822 1.25303,-2.92005 2.60153,-3.71007 1.348,-0.78974 2.47291,-1.14815 3.36824,-1.0779 0.96816,0.0759 1.85995,0.49915 2.67228,1.26883 0.83845,0.74838 1.22174,1.53108 1.15365,2.34589 -0.055,0.6588 -0.75152,3.0253 -2.07597,7.14359 -1.29653,4.09031 -2.55256,7.85764 -3.77087,11.300941 -1.27557,3.57709 -2.01229,6.46708 -2.22605,8.65071 -0.17305,1.65041 -0.68033,3.0762 -1.51653,4.27846 z m -6.04177,15.72832 c -2.49337,-0.17114 -3.65479,-1.66814 -3.47414,-4.51429 0.068,-1.07203 0.65988,-2.27655 1.78371,-3.6074 1.12404,-1.3311 2.28861,-1.95495 3.48505,-1.87111 0.78212,0.0548 1.7336,0.50911 2.84863,1.36465 1.11498,0.85551 1.64968,1.55354 1.60894,2.08895 1.4e-4,-5.7e-4 -0.50787,2.14112 -0.50773,2.14055 -0.32206,1.52214 -1.15324,2.6537 -2.48785,3.39951 -1.3333,0.72274 -2.41639,1.05681 -3.25661,0.99914 z m 55.18974,-24.90319 c -0.16136,1.27613 -0.981,2.38548 -2.45329,3.33292 -1.44903,0.95048 -3.09356,1.31305 -4.93964,1.091 -1.09838,-0.13217 -1.99514,-0.95651 -2.69544,-2.47463 l -0.004,0.0347 c -0.62849,-1.32155 -0.89614,-2.39932 -0.79886,-3.23557 0.054,-0.46417 0.43272,-1.16207 1.13811,-2.09145 0.72908,-0.92679 1.4548,-1.60629 2.17599,-2.038561 -0.0127,0.01 -0.0263,0.0204 -0.0395,0.0306 0.7682,-0.42663 1.81393,-0.56085 3.13498,-0.40014 0.44792,0.0546 1.20068,0.46422 2.25379,1.230681 0.19482,0.16552 0.31417,0.26276 0.35844,0.29185 1.07347,0.9812 1.68101,1.65984 1.82497,2.03103 0.17064,0.35151 0.19859,0.9795 0.0842,1.88426 -0.0127,0.10432 -0.0264,0.20877 -0.0395,0.31315 z m -10.51133,29.19829 c -1.57505,-0.18995 -2.67604,-0.66075 -3.30562,-1.4173 -0.62898,-0.75581 -0.7893,-2.4815 -0.47767,-5.17492 0.12892,-1.11479 0.37227,-1.91009 0.7308,-2.38623 0.3841,-0.49646 1.06941,-0.96988 2.057,-1.41803 1.01344,-0.46865 1.87903,-0.65929 2.59408,-0.57299 1.54568,0.1865 2.83149,0.68648 3.85431,1.49696 1.04609,0.81355 1.49738,1.77815 1.35741,2.89163 -0.26246,2.08819 -1.28565,3.72588 -3.05901,4.91957 -1.75089,1.19681 -2.99744,1.75223 -3.7513,1.66131 z m 14.24815,-3.21317 c 0.40297,-1.10201 0.86956,-3.11665 1.39959,-6.04176 1.60377,-7.99523 3.72953,-16.301 6.40625,-24.90538 0.62819,-1.803331 1.00934,-3.190141 1.14174,-4.163881 0.0567,-0.41709 -0.0976,-0.69771 -0.46346,-0.84163 -2.42087,-0.96469 -3.53527,-2.20638 -3.33254,-3.73716 0.14737,-1.11265 0.79574,-2.08871 1.94837,-2.92584 1.17939,-0.85706 2.35371,-1.20626 3.51907,-1.0476 1.59901,0.2649 3.1968,0.53273 4.79336,0.80336 2.18826,0.30618 5.20487,0.58 9.06753,0.83854 3.28437,0.19792 5.94975,0.45715 7.98082,0.76571 6.5991,1.00253 11.63379,3.66526 15.08825,7.93892 3.48348,4.256601 4.7171,9.366091 3.74323,15.316591 -1.088,6.64786 -5.16744,12.13842 -12.17001,16.54378 -7.00099,4.38357 -14.96334,6.89777 -23.91346,7.60895 -2.36449,0.17675 -4.04392,0.38824 -5.03326,0.62565 -0.99055,0.23768 -2.17214,0.67393 -3.54108,1.30995 -1.70469,0.87278 -3.30652,1.20777 -4.81148,1.00405 -1.16292,-0.15742 -2.12362,-0.86398 -2.88619,-2.12111 -0.76265,-1.25724 -1.0986,-2.24428 -1.00426,-2.96325 0.0639,-0.48672 0.39684,-1.16267 1.00031,-2.02627 0.35526,-0.66069 0.71099,-1.32123 1.06722,-1.98162 z m 9.23472,-0.51013 c 1.22919,0.17207 4.81736,-0.23568 10.8534,-1.16797 6.05489,-0.95085 11.17879,-2.9868 15.37785,-6.14187 4.19752,-3.15395 6.69159,-7.09726 7.45037,-11.85467 0.60756,-3.80935 -0.26319,-7.05165 -2.63181,-9.72141 -2.34055,-2.688031 -5.71793,-4.375631 -10.12314,-5.041071 -3.01256,-0.45505 -6.69039,-0.71817 -11.01604,-0.77216 -0.55291,-0.009 -0.99599,-0.0245 -1.32988,-0.0485 -4.76783,15.066411 -7.5533,25.882371 -8.43833,32.217171 -0.165,1.18114 -0.2124,2.02482 -0.14242,2.53041 z"
       id="text9"
       aria-label="Time! :D&#10;" />
  </g>
  <g
     inkscape:label="Layer 1"
     inkscape:groupmode="layer"
     id="g26"
     style="display:none">
    <text
       xml:space="preserve"
       style="font-size:50.8px;text-align:start;writing-mode:lr-tb;direction:ltr;text-anchor:start;fill:#000000;stroke:#1f3a93;stroke-width:5;stroke-linecap:round;stroke-linejoin:round;stroke-miterlimit:4.4;stroke-dasharray:none;stroke-opacity:1"
       x="58.401035"
       y="55.327293"
       id="text20"><tspan
         sodipodi:role="line"
         id="tspan19"
         style="font-style:normal;font-variant:normal;font-weight:bold;font-stretch:normal;font-size:50.8px;font-family:'Segoe Print';-inkscape-font-specification:'Segoe Print';letter-spacing:-2.91042px;fill:#9dc5f6;fill-opacity:1;stroke:#1f3a93;stroke-width:5;stroke-linecap:round;stroke-linejoin:round;stroke-miterlimit:4.4;stroke-dasharray:none;stroke-opacity:1"
         x="58.401035"
         y="55.327293">Trivia</tspan><tspan
         sodipodi:role="line"
         style="font-style:normal;font-variant:normal;font-weight:bold;font-stretch:normal;font-size:50.8px;font-family:'Segoe Print';-inkscape-font-specification:'Segoe Print';fill:#9dc5f6;fill-opacity:1;stroke:#1f3a93;stroke-width:5;stroke-linecap:round;stroke-linejoin:round;stroke-miterlimit:4.4;stroke-dasharray:none;stroke-opacity:1"
         x="58.401035"
         y="121.65294"
         id="tspan20" /></text>
    <text
       xml:space="preserve"
       style="font-size:50.8px;text-align:start;writing-mode:lr-tb;direction:ltr;text-anchor:start;fill:#000000;stroke:none;stroke-width:2.465;stroke-linecap:round;stroke-linejoin:round;stroke-miterlimit:4.4;stroke-dasharray:none;stroke-opacity:1"
       id="text22"
       y="55.327293"
       x="58.977364"><tspan
         sodipodi:role="line"
         id="tspan21"
         style="font-style:normal;font-variant:normal;font-weight:bold;font-stretch:normal;font-size:50.8px;font-family:'Segoe Print';-inkscape-font-specification:'Segoe Print';letter-spacing:-2.91042px;fill:#9dc5f6;fill-opacity:1;stroke:none;stroke-width:2.465;stroke-linecap:round;stroke-linejoin:round;stroke-miterlimit:4.4;stroke-dasharray:none;stroke-opacity:1"
         x="58.977364"
         y="55.327293">Trivia</tspan><tspan
         sodipodi:role="line"
         style="font-style:normal;font-variant:normal;font-weight:bold;font-stretch:normal;font-size:50.8px;font-family:'Segoe Print';-inkscape-font-specification:'Segoe Print';fill:#9dc5f6;fill-opacity:1;stroke:none;stroke-width:2.465;stroke-linecap:round;stroke-linejoin:round;stroke-miterlimit:4.4;stroke-dasharray:none;stroke-opacity:1"
         x="58.977364"
         y="121.65294"
         id="tspan22" /></text>
    <text
       xml:space="preserve"
       style="font-size:50.8px;text-align:start;writing-mode:lr-tb;direction:ltr;text-anchor:start;fill:#000000;stroke:#1f3a93;stroke-width:5;stroke-linecap:round;stroke-linejoin:round;stroke-miterlimit:4.4;stroke-dasharray:none;stroke-opacity:1"
       x="37.653297"
       y="110.65459"
       id="text24"><tspan
         sodipodi:role="line"
         id="tspan23"
         style="font-style:normal;font-variant:normal;font-weight:bold;font-stretch:normal;font-size:50.8px;font-family:'Segoe Print';-inkscape-font-specification:'Segoe Print';letter-spacing:-2.91042px;fill:#9dc5f6;fill-opacity:1;stroke:#1f3a93;stroke-width:5;stroke-linecap:round;stroke-linejoin:round;stroke-miterlimit:4.4;stroke-dasharray:none;stroke-opacity:1"
         x="37.653297"
         y="110.65459">Time! :D</tspan><tspan
         sodipodi:role="line"
         style="font-style:normal;font-variant:normal;font-weight:bold;font-stretch:normal;font-size:50.8px;font-family:'Segoe Print';-inkscape-font-specification:'Segoe Print';fill:#9dc5f6;fill-opacity:1;stroke:#1f3a93;stroke-width:5;stroke-linecap:round;stroke-linejoin:round;stroke-miterlimit:4.4;stroke-dasharray:none;stroke-opacity:1"
         x="37.653297"
         y="176.98024"
         id="tspan24" /></text>
    <text
       xml:space="preserve"
       style="font-size:50.8px;text-align:start;writing-mode:lr-tb;direction:ltr;text-anchor:start;fill:#000000;stroke:none;stroke-width:5;stroke-linecap:round;stroke-linejoin:round;stroke-miterlimit:4.4;stroke-dasharray:none;stroke-opacity:1"
       x="38.374573"
       y="110.79954"
       id="text26"><tspan
         sodipodi:role="line"
         id="tspan25"
         style="font-style:normal;font-variant:normal;font-weight:bold;font-stretch:normal;font-size:50.8px;font-family:'Segoe Print';-inkscape-font-specification:'Segoe Print';letter-spacing:-2.91042px;fill:#9dc5f6;fill-opacity:1;stroke:none;stroke-width:5;stroke-linecap:round;stroke-linejoin:round;stroke-miterlimit:4.4;stroke-dasharray:none;stroke-opacity:1"
         x="38.374573"
         y="110.79954">Time! :D</tspan><tspan
         sodipodi:role="line"
         style="font-style:normal;font-variant:normal;font-weight:bold;font-stretch:normal;font-size:50.8px;font-family:'Segoe Print';-inkscape-font-specification:'Segoe Print';fill:#9dc5f6;fill-opacity:1;stroke:none;stroke-width:5;stroke-linecap:round;stroke-linejoin:round;stroke-miterlimit:4.4;stroke-dasharray:none;stroke-opacity:1"
         x="38.374573"
         y="177.12518"
         id="tspan26" /></text>
  </g>
</svg>
